<?xml version="1.0" encoding="utf-8"?>
<!-- Generator: Adobe Illustrator 21.0.2, SVG Export Plug-In . SVG Version: 6.00 Build 0)  -->
<svg version="1.1" xmlns="http://www.w3.org/2000/svg" xmlns:xlink="http://www.w3.org/1999/xlink" x="0px" y="0px" width="843.5px"
	 height="794.7px" viewBox="0 0 843.5 794.7" style="enable-background:new 0 0 843.5 794.7;" xml:space="preserve">
<style type="text/css">
	.st0{display:none;}
	.st1{display:inline;stroke:#FFFFFF;stroke-linecap:round;stroke-miterlimit:10;}
	.st2{fill:#FFFFFF;}
	.st3{font-family:'FuturaMediumC';}
	.st4{font-size:92px;}
</style>
<g id="Layer_2" class="st0">
	<rect class="st1" width="843.5" height="794.7"/>
</g>
<g id="Layer_1">
	<g>
		<g>
			<path class="st2" d="M174.8,525.2c-13.5,23.5-27,46.9-40.5,70.4c-21.5,37.4-43,74.7-64.5,112.1c-4.9,8.5-9.8,17-14.7,25.5
				c-3.8,6.5,4,15.1,10.7,10.7c25.9-16.9,51.8-33.9,77.7-50.8c41.1-26.9,82.3-53.7,123.4-80.6c9.5-6.2,18.9-12.4,28.4-18.5
				c8.4-5.5,0.6-19-7.9-13.5c-25.9,16.9-51.8,33.9-77.7,50.8c-41.1,26.9-82.3,53.7-123.4,80.6c-9.5,6.2-18.9,12.4-28.4,18.5
				c3.6,3.6,7.1,7.1,10.7,10.7c13.5-23.5,27-46.9,40.5-70.4c21.5-37.4,43-74.7,64.5-112.1c4.9-8.5,9.8-17,14.7-25.5
				C193.3,524.3,179.8,516.4,174.8,525.2L174.8,525.2z"/>
		</g>
	</g>
	<g>
		<g>
			<path class="st2" d="M185.4,522.4c-54.4-41.9-95.9-101.6-105.8-170.5c-8.2-56.3,6.5-113.5,37.3-160.9
				c31.9-49,79.3-86.5,131.5-112C308,50,374.6,36.4,440.7,36.9c65.8,0.4,132,14.8,190.9,44.6c51.7,26.1,98.3,64.2,129.2,113.7
				c28.9,46.2,42.3,101,34.9,155.3c-7.5,54.8-35.4,104.8-74.1,143.7c-43,43.3-98.1,73.4-156.3,90.8c-70.2,20.9-144.8,23.5-216.5,9.2
				c-18.8-3.8-37.3-8.6-55.5-14.5c-9.6-3.1-13.7,11.9-4.1,15c75.3,24.5,156.1,30.7,234,16.4c64.5-11.9,126.7-38,178.5-78.5
				c46.1-36.1,83.3-84.6,100.8-140.9c17.2-55.5,13.3-115.6-9.5-168.9C769.4,168,727,122.8,677.6,90.1
				c-55.9-37-121.3-58.5-187.7-65.9c-69.8-7.9-142-0.2-208.1,23.9C223,69.5,167.9,103.9,127,151.7c-37.7,44.1-62.2,98.9-65,157.2
				c-3.4,71.2,26.5,139.2,74.9,190.5c12.5,13.2,26.2,25.2,40.6,36.3c3.4,2.6,8.7,0.5,10.7-2.8C190.6,529,188.8,524.9,185.4,522.4
				L185.4,522.4z"/>
		</g>
	</g>
	<text transform="matrix(1 0 0 1 139.4214 357.2674)" class="st2 st3 st4">Can’t touch this!</text>
	<g>
		<g>
			<g>
				<path class="st2" d="M167.5,305.9c25.6,8.4,56.4,19.9,82.5,27.5c31.3,9.1,65.1,19.4,96.4,28.2c-0.1,0.4-2.9,0.4-0.4,1.3
					c10.3,3.6,10,4.5,9.8,5.4c-0.1,0.4-7.9-2.2-5.4-1c-7.9-2.2-21-5.7-13.3-3c2.5,1.2,13.1,3.7,15.5,5.1c2.4,1.4-3,0.6-0.6,2
					c2.6,0.7,7.9,2.2,10.5,2.9c2.5,1.2-3,0.6-0.4,1.3c7.8,2.6,18.3,5.2,28.9,8c-0.1,0.4,2.4,1.6-2.9,0.4
					C295.9,360,202,330.8,113,296.3c-10.1-4.1-2.1-2,5.7,0.2c-2.6-0.7-2.4-1.4-5-2.1c0.2-0.6,5.7,0.2,16,3.8c-2.5-1-5.1-1.9-7.6-2.9
					c-2.5-1.2,0.2-0.6,0.4-1.1c2.5,1,5.1,1.9,5.2,1.7c0.1-0.2,0.2-0.6,0.3-0.9c-2.5-1-7.6-2.9-10.2-3.8c2.5,1,5.1,1.9,5.2,1.7
					c0.1-0.2,0.2-0.6,0.3-0.9c5.2,1.7,12.7,5,17.8,6.6l0.2-0.6c-5-2.1-12.8-4.7-17.8-6.6c2.6,0.7,2.7,0.5,2.9,0.1
					c7.7,2.6,15.1,6.1,23,8.3l-7.6-2.8C147.3,297.9,159.7,303.4,167.5,305.9z"/>
			</g>
		</g>
	</g>
</g>
</svg>
