<?xml version="1.0" encoding="utf-8"?>
<!-- Generator: Adobe Illustrator 21.0.2, SVG Export Plug-In . SVG Version: 6.00 Build 0)  -->
<svg version="1.1" xmlns="http://www.w3.org/2000/svg" xmlns:xlink="http://www.w3.org/1999/xlink" x="0px" y="0px"
	 width="1700.8px" height="1920.3px" viewBox="0 0 1700.8 1920.3" style="enable-background:new 0 0 1700.8 1920.3;"
	 xml:space="preserve">
<style type="text/css">
	.st0{fill:#FFFFFF;stroke:#000000;stroke-width:4;}
</style>
<g id="Layer_2_1_">
	<g>
		<g>
			<path class="st0" d="M1323.3,173.2v48h-133v79.5h129v48h-129v110h133v48h-184V173.2H1323.3z"/>
			<path class="st0" d="M1389.3,173.2h51v201c0,26,3.5,45.2,10.5,57.5c5.7,9.3,14,17.4,25,24.3c11,6.8,23.3,10.3,37,10.3
				c13.7,0,26-3.4,37-10.3c11-6.8,19.3-14.9,25-24.3c7-12.3,10.5-31.5,10.5-57.5v-201h51v214.5c0,35-10.3,63.8-31,86.5
				c-24,26-54.8,39-92.5,39c-37.7,0-68.5-13-92.5-39c-20.7-22.7-31-51.5-31-86.5V173.2z"/>
		</g>
		<g>
			<polygon class="st0" points="1144.2,173.2 1144.2,221.2 1011.2,221.2 1011.2,300.7 1140.2,300.7 1140.2,348.7 1011.2,348.7 
				1011.2,458.7 1144.2,458.7 1144.2,506.7 960.2,506.7 960.2,173.2 			"/>
			<path class="st0" d="M1210.2,173.2h51v201c0,26,3.3,45.3,10.5,57.5c5.5,9.4,14,17.4,25,24.3c11,6.8,23.3,10.3,37,10.3
				c13.7,0,26-3.4,37-10.3c11-6.8,19.5-14.8,25-24.3c7.2-12.2,10.5-31.5,10.5-57.5v-201h51v214.5c0,35-10.3,63.9-31,86.5
				c-23.9,26.1-54.8,39-92.5,39c-37.7,0-68.6-12.9-92.5-39c-20.7-22.6-31-51.5-31-86.5V173.2z"/>
		</g>
		<g>
			<polygon class="st0" points="965,173.2 965,221.2 832,221.2 832,300.7 961,300.7 961,348.7 832,348.7 832,458.7 965,458.7 
				965,506.7 781,506.7 781,173.2 			"/>
			<path class="st0" d="M1031,173.2h51v201c0,26,3.3,45.3,10.5,57.5c5.5,9.4,14,17.4,25,24.3c11,6.8,23.3,10.3,37,10.3
				c13.7,0,26-3.4,37-10.3c11-6.8,19.5-14.8,25-24.3c7.2-12.2,10.5-31.5,10.5-57.5v-201h51v214.5c0,35-10.3,63.9-31,86.5
				c-23.9,26.1-54.8,39-92.5,39c-37.7,0-68.6-12.9-92.5-39c-20.7-22.6-31-51.5-31-86.5V173.2z"/>
		</g>
		<g>
			<polygon class="st0" points="785.8,173.2 785.8,221.2 652.8,221.2 652.8,300.7 781.8,300.7 781.8,348.7 652.8,348.7 652.8,458.7 
				785.8,458.7 785.8,506.7 601.8,506.7 601.8,173.2 			"/>
			<path class="st0" d="M851.8,173.2h51v201c0,26,3.3,45.3,10.5,57.5c5.5,9.4,14,17.4,25,24.3c11,6.8,23.3,10.3,37,10.3
				c13.7,0,26-3.4,37-10.3c11-6.8,19.5-14.8,25-24.3c7.2-12.2,10.5-31.5,10.5-57.5v-201h51v214.5c0,35-10.3,63.9-31,86.5
				c-23.9,26.1-54.8,39-92.5,39c-37.7,0-68.6-12.9-92.5-39c-20.7-22.6-31-51.5-31-86.5V173.2z"/>
		</g>
		<g>
			<polygon class="st0" points="606.6,173.2 606.6,221.2 473.6,221.2 473.6,300.7 602.6,300.7 602.6,348.7 473.6,348.7 473.6,458.7 
				606.6,458.7 606.6,506.7 422.6,506.7 422.6,173.2 			"/>
			<path class="st0" d="M672.6,173.2h51v201c0,26,3.3,45.3,10.5,57.5c5.5,9.4,14,17.4,25,24.3c11,6.8,23.3,10.3,37,10.3
				c13.7,0,26-3.4,37-10.3c11-6.8,19.5-14.8,25-24.3c7.2-12.2,10.5-31.5,10.5-57.5v-201h51v214.5c0,35-10.3,63.9-31,86.5
				c-23.9,26.1-54.8,39-92.5,39c-37.7,0-68.6-12.9-92.5-39c-20.7-22.6-31-51.5-31-86.5V173.2z"/>
		</g>
		<g>
			<polygon class="st0" points="427.5,173.2 427.5,221.2 294.5,221.2 294.5,300.7 423.5,300.7 423.5,348.7 294.5,348.7 294.5,458.7 
				427.5,458.7 427.5,506.7 243.5,506.7 243.5,173.2 			"/>
			<path class="st0" d="M493.5,173.2h51v201c0,26,3.3,45.3,10.5,57.5c5.5,9.4,14,17.4,25,24.3c11,6.8,23.3,10.3,37,10.3
				c13.7,0,26-3.4,37-10.3c11-6.8,19.5-14.8,25-24.3c7.2-12.2,10.5-31.5,10.5-57.5v-201h51v214.5c0,35-10.3,63.9-31,86.5
				c-23.9,26.1-54.8,39-92.5,39c-37.7,0-68.6-12.9-92.5-39c-20.7-22.6-31-51.5-31-86.5V173.2z"/>
		</g>
		<g>
			<path class="st0" d="M248.3,173.2v48h-133v79.5h129v48h-129v110h133v48h-184V173.2H248.3z"/>
			<path class="st0" d="M314.3,173.2h51v201c0,26,3.5,45.2,10.5,57.5c5.7,9.3,14,17.4,25,24.3c11,6.8,23.3,10.3,37,10.3
				c13.7,0,26-3.4,37-10.3c11-6.8,19.3-14.9,25-24.3c7-12.3,10.5-31.5,10.5-57.5v-201h51v214.5c0,35-10.3,63.8-31,86.5
				c-24,26-54.8,39-92.5,39c-37.7,0-68.5-13-92.5-39c-20.7-22.7-31-51.5-31-86.5V173.2z"/>
		</g>
	</g>
	<g>
		<g>
			<path class="st0" d="M1191.8,633.8v106h16c4.3,0,8.7-0.2,13-0.5c4.3-0.3,10.3-1.5,17.8-3.5s14-4.8,19.5-8.3s10.3-8.9,14.5-16.3
				c4.2-7.3,6.3-16,6.3-26c0-34.3-23.2-51.5-69.5-51.5H1191.8z M1140.8,586.8h59.5c39.3,0,68.7,6.5,88,19.5
				c26.3,17.7,39.5,43.8,39.5,78.5c0,23.7-6.8,43.8-20.3,60.5c-13.5,16.7-31.4,27.5-53.8,32.5l104,142.5h-61.5l-95.5-136.5h-9v136.5
				h-51V586.8z"/>
			<path class="st0" d="M1477.3,920.3v-144l-109.5-189.5h58l77,133.5l77-133.5h58l-109.5,189.5v144H1477.3z"/>
		</g>
		<g>
			<path class="st0" d="M1012.3,633.8v106h16c4.3,0,8.7-0.2,13-0.5c4.3-0.3,10.3-1.5,17.8-3.5s14-4.8,19.5-8.3s10.3-8.9,14.5-16.3
				c4.2-7.3,6.3-16,6.3-26c0-34.3-23.2-51.5-69.5-51.5H1012.3z M961.3,586.8h59.5c39.3,0,68.7,6.5,88,19.5
				c26.3,17.7,39.5,43.8,39.5,78.5c0,23.7-6.8,43.8-20.3,60.5c-13.5,16.7-31.4,27.5-53.8,32.5l104,142.5h-61.5l-95.5-136.5h-9v136.5
				h-51V586.8z"/>
			<polygon class="st0" points="1297.7,920.3 1297.7,776.3 1188.2,586.8 1246.2,586.8 1323.2,720.3 1400.2,586.8 1458.2,586.8 
				1348.7,776.3 1348.7,920.3 			"/>
		</g>
		<g>
			<path class="st0" d="M832.7,633.8v106h16c4.3,0,8.7-0.2,13-0.5c4.3-0.3,10.3-1.5,17.8-3.5s14-4.8,19.5-8.3s10.3-8.9,14.5-16.3
				c4.2-7.3,6.3-16,6.3-26c0-34.3-23.2-51.5-69.5-51.5H832.7z M781.7,586.8h59.5c39.3,0,68.7,6.5,88,19.5
				c26.3,17.7,39.5,43.8,39.5,78.5c0,23.7-6.8,43.8-20.3,60.5c-13.5,16.7-31.4,27.5-53.8,32.5l104,142.5h-61.5l-95.5-136.5h-9v136.5
				h-51V586.8z"/>
			<polygon class="st0" points="1118.2,920.3 1118.2,776.3 1008.7,586.8 1066.7,586.8 1143.7,720.3 1220.7,586.8 1278.7,586.8 
				1169.2,776.3 1169.2,920.3 			"/>
		</g>
		<g>
			<path class="st0" d="M653.1,633.8v106h16c4.3,0,8.7-0.2,13-0.5c4.3-0.3,10.3-1.5,17.8-3.5s14-4.8,19.5-8.3s10.3-8.9,14.5-16.3
				c4.2-7.3,6.3-16,6.3-26c0-34.3-23.2-51.5-69.5-51.5H653.1z M602.1,586.8h59.5c39.3,0,68.7,6.5,88,19.5
				c26.3,17.7,39.5,43.8,39.5,78.5c0,23.7-6.8,43.8-20.3,60.5c-13.5,16.7-31.4,27.5-53.8,32.5l104,142.5h-61.5l-95.5-136.5h-9v136.5
				h-51V586.8z"/>
			<polygon class="st0" points="938.6,920.3 938.6,776.3 829.1,586.8 887.1,586.8 964.1,720.3 1041.1,586.8 1099.1,586.8 
				989.6,776.3 989.6,920.3 			"/>
		</g>
		<g>
			<path class="st0" d="M473.5,633.8v106h16c4.3,0,8.7-0.2,13-0.5c4.3-0.3,10.2-1.5,17.7-3.5s14-4.8,19.5-8.3s10.3-8.9,14.5-16.3
				c4.2-7.3,6.3-16,6.3-26c0-34.3-23.2-51.5-69.5-51.5H473.5z M422.5,586.8H482c39.3,0,68.7,6.5,88,19.5
				c26.3,17.7,39.5,43.8,39.5,78.5c0,23.7-6.8,43.8-20.3,60.5c-13.5,16.7-31.4,27.5-53.8,32.5l104,142.5H578l-95.5-136.5h-9v136.5
				h-51V586.8z"/>
			<polygon class="st0" points="759,920.3 759,776.3 649.5,586.8 707.5,586.8 784.5,720.3 861.5,586.8 919.5,586.8 810,776.3 
				810,920.3 			"/>
		</g>
		<g>
			<path class="st0" d="M293.9,633.8v106h16c4.3,0,8.7-0.2,13-0.5c4.3-0.3,10.3-1.5,17.8-3.5s14-4.8,19.5-8.3s10.3-8.9,14.5-16.3
				c4.2-7.3,6.3-16,6.3-26c0-34.3-23.2-51.5-69.5-51.5H293.9z M242.9,586.8h59.5c39.3,0,68.7,6.5,88,19.5
				c26.3,17.7,39.5,43.8,39.5,78.5c0,23.7-6.8,43.8-20.3,60.5c-13.5,16.7-31.4,27.5-53.8,32.5l104,142.5h-61.5l-95.5-136.5h-9v136.5
				h-51V586.8z"/>
			<polygon class="st0" points="579.4,920.3 579.4,776.3 469.9,586.8 527.9,586.8 604.9,720.3 681.9,586.8 739.9,586.8 630.4,776.3 
				630.4,920.3 			"/>
		</g>
		<g>
			<path class="st0" d="M114.3,633.8v106h16c4.3,0,8.7-0.2,13-0.5c4.3-0.3,10.3-1.5,17.8-3.5s14-4.8,19.5-8.3s10.3-8.9,14.5-16.3
				c4.2-7.3,6.3-16,6.3-26c0-34.3-23.2-51.5-69.5-51.5H114.3z M63.3,586.8h59.5c39.3,0,68.7,6.5,88,19.5
				c26.3,17.7,39.5,43.8,39.5,78.5c0,23.7-6.8,43.8-20.3,60.5c-13.5,16.7-31.4,27.5-53.8,32.5l104,142.5h-61.5l-95.5-136.5h-9v136.5
				h-51V586.8z"/>
			<path class="st0" d="M399.8,920.3v-144L290.3,586.8h58l77,133.5l77-133.5h58L450.8,776.3v144H399.8z"/>
		</g>
	</g>
	<g>
		<g>
			<path class="st0" d="M1314.9,1048.7v237.5h22c38,0,67.5-7.8,88.5-23.5c30.3-23,45.5-54.7,45.5-95c0-20.7-4.3-39.5-12.8-56.5
				s-19.3-30.2-32.3-39.5c-21.3-15.3-51-23-89-23H1314.9z M1263.9,1000.7h70c26.3,0,49.3,2.3,69,6.8c19.7,4.5,38,13.1,55,25.8
				c20.3,15.3,36.1,34.7,47.3,58c11.2,23.3,16.8,48.8,16.8,76.5c0,58.3-22.3,103.2-67,134.5c-18,12.7-36.3,21.2-55,25.5
				c-18.7,4.3-41,6.5-67,6.5h-69V1000.7z"/>
			<path class="st0" d="M1585.9,1000.7h51v333.5h-51V1000.7z"/>
		</g>
		<g>
			<path class="st0" d="M1114.9,1048.7v237.5h22c38,0,67.5-7.8,88.5-23.5c30.3-23,45.5-54.7,45.5-95c0-20.7-4.3-39.5-12.8-56.5
				s-19.3-30.2-32.3-39.5c-21.3-15.3-51-23-89-23H1114.9z M1063.9,1000.7h70c26.3,0,49.3,2.3,69,6.8c19.7,4.5,38,13,55,25.8
				c20.4,15.3,36.1,34.7,47.3,58c11.2,23.3,16.8,48.8,16.8,76.5c0,58.3-22.3,103.2-67,134.5c-18,12.7-36.3,21.2-55,25.5
				c-18.7,4.3-41,6.5-67,6.5h-69V1000.7z"/>
			<rect x="1385.9" y="1000.7" class="st0" width="51" height="333.5"/>
		</g>
		<g>
			<path class="st0" d="M915,1048.7v237.5h22c38,0,67.5-7.8,88.5-23.5c30.3-23,45.5-54.7,45.5-95c0-20.7-4.3-39.5-12.8-56.5
				s-19.3-30.2-32.3-39.5c-21.3-15.3-51-23-89-23H915z M864,1000.7h70c26.3,0,49.3,2.3,69,6.8c19.7,4.5,38,13,55,25.8
				c20.4,15.3,36.1,34.7,47.3,58c11.2,23.3,16.8,48.8,16.8,76.5c0,58.3-22.3,103.2-67,134.5c-18,12.7-36.3,21.2-55,25.5
				c-18.7,4.3-41,6.5-67,6.5h-69V1000.7z"/>
			<rect x="1186" y="1000.7" class="st0" width="51" height="333.5"/>
		</g>
		<g>
			<path class="st0" d="M715.1,1048.7v237.5h22c38,0,67.5-7.8,88.5-23.5c30.3-23,45.5-54.7,45.5-95c0-20.7-4.3-39.5-12.8-56.5
				s-19.3-30.2-32.3-39.5c-21.3-15.3-51-23-89-23H715.1z M664.1,1000.7h70c26.3,0,49.3,2.3,69,6.8c19.7,4.5,38,13,55,25.8
				c20.4,15.3,36.1,34.7,47.3,58c11.2,23.3,16.8,48.8,16.8,76.5c0,58.3-22.3,103.2-67,134.5c-18,12.7-36.3,21.2-55,25.5
				c-18.7,4.3-41,6.5-67,6.5h-69V1000.7z"/>
			<rect x="986.1" y="1000.7" class="st0" width="51" height="333.5"/>
		</g>
		<g>
			<path class="st0" d="M515.2,1048.7v237.5h22c38,0,67.5-7.8,88.5-23.5c30.3-23,45.5-54.7,45.5-95c0-20.7-4.3-39.5-12.8-56.5
				s-19.3-30.2-32.3-39.5c-21.3-15.3-51-23-89-23H515.2z M464.2,1000.7h70c26.3,0,49.3,2.3,69,6.8c19.7,4.5,38,13,55,25.8
				c20.4,15.3,36.1,34.7,47.3,58c11.2,23.3,16.8,48.8,16.8,76.5c0,58.3-22.3,103.2-67,134.5c-18,12.7-36.3,21.2-55,25.5
				c-18.7,4.3-41,6.5-67,6.5h-69V1000.7z"/>
			<rect x="786.2" y="1000.7" class="st0" width="51" height="333.5"/>
		</g>
		<g>
			<path class="st0" d="M315.2,1048.7v237.5h22c38,0,67.5-7.8,88.5-23.5c30.3-23,45.5-54.7,45.5-95c0-20.7-4.3-39.5-12.8-56.5
				s-19.3-30.2-32.3-39.5c-21.3-15.3-51-23-89-23H315.2z M264.2,1000.7h70c26.3,0,49.3,2.3,69,6.8c19.7,4.5,38,13,55,25.8
				c20.4,15.3,36.1,34.7,47.3,58c11.2,23.3,16.8,48.8,16.8,76.5c0,58.3-22.3,103.2-67,134.5c-18,12.7-36.3,21.2-55,25.5
				c-18.7,4.3-41,6.5-67,6.5h-69V1000.7z"/>
			<rect x="586.2" y="1000.7" class="st0" width="51" height="333.5"/>
		</g>
		<g>
			<path class="st0" d="M115.3,1048.7v237.5h22c38,0,67.5-7.8,88.5-23.5c30.3-23,45.5-54.7,45.5-95c0-20.7-4.3-39.5-12.8-56.5
				c-8.5-17-19.3-30.2-32.3-39.5c-21.3-15.3-51-23-89-23H115.3z M64.3,1000.7h70c26.3,0,49.3,2.3,69,6.8c19.7,4.5,38,13.1,55,25.8
				c20.3,15.3,36.1,34.7,47.3,58c11.2,23.3,16.8,48.8,16.8,76.5c0,58.3-22.3,103.2-67,134.5c-18,12.7-36.3,21.2-55,25.5
				c-18.7,4.3-41,6.5-67,6.5h-69V1000.7z"/>
			<path class="st0" d="M386.3,1000.7h51v333.5h-51V1000.7z"/>
		</g>
	</g>
	<g>
		<g>
			<path class="st0" d="M1389.3,1432.2v60c-27.3-24.7-57.5-37-90.5-37c-36,0-65.3,11.9-87.8,35.8c-22.5,23.8-33.8,54.3-33.8,91.3
				c0,35.7,11.5,65.4,34.5,89.3c23,23.8,52.2,35.8,87.5,35.8c33,0,63-12.8,90-38.5v60.5c-28,16.7-58.5,25-91.5,25
				c-46.3,0-85.7-15.3-118-46c-35.7-33.3-53.5-75.3-53.5-126c0-53.3,17.8-96.8,53.5-130.5c30.7-29,70.8-43.5,120.5-43.5
				C1334.7,1408.2,1364.3,1416.2,1389.3,1432.2z"/>
			<path class="st0" d="M1636.3,1414.2v48h-133v79.5h129v48h-129v110h133v48h-184v-333.5H1636.3z"/>
		</g>
		<g>
			<path class="st0" d="M1212.2,1432.2v60c-27.3-24.7-57.5-37-90.5-37c-36,0-65.3,11.9-87.8,35.8c-22.5,23.8-33.8,54.3-33.8,91.3
				c0,35.7,11.5,65.4,34.5,89.3c23,23.8,52.2,35.8,87.5,35.8c33,0,63-12.8,90-38.5v60.5c-28,16.7-58.5,25-91.5,25
				c-46.3,0-85.6-15.5-118-46c-35.5-33.5-53.5-75.3-53.5-126c0-53.3,17.8-96.8,53.5-130.5c30.7-29,70.8-43.5,120.5-43.5
				C1157.5,1408.2,1187.2,1416.2,1212.2,1432.2z"/>
			<polygon class="st0" points="1459.2,1414.2 1459.2,1462.2 1326.2,1462.2 1326.2,1541.7 1455.2,1541.7 1455.2,1589.7 
				1326.2,1589.7 1326.2,1699.7 1459.2,1699.7 1459.2,1747.7 1275.2,1747.7 1275.2,1414.2 			"/>
		</g>
		<g>
			<path class="st0" d="M1035,1432.2v60c-27.3-24.7-57.5-37-90.5-37c-36,0-65.3,11.9-87.8,35.8c-22.5,23.8-33.8,54.3-33.8,91.3
				c0,35.7,11.5,65.4,34.5,89.3c23,23.8,52.2,35.8,87.5,35.8c33,0,63-12.8,90-38.5v60.5c-28,16.7-58.5,25-91.5,25
				c-46.3,0-85.6-15.5-118-46c-35.5-33.5-53.5-75.3-53.5-126c0-53.3,17.8-96.8,53.5-130.5c30.7-29,70.8-43.5,120.5-43.5
				C980.3,1408.2,1010,1416.2,1035,1432.2z"/>
			<polygon class="st0" points="1282,1414.2 1282,1462.2 1149,1462.2 1149,1541.7 1278,1541.7 1278,1589.7 1149,1589.7 1149,1699.7 
				1282,1699.7 1282,1747.7 1098,1747.7 1098,1414.2 			"/>
		</g>
		<g>
			<path class="st0" d="M857.8,1432.2v60c-27.3-24.7-57.5-37-90.5-37c-36,0-65.3,11.9-87.8,35.8c-22.5,23.8-33.8,54.3-33.8,91.3
				c0,35.7,11.5,65.4,34.5,89.3c23,23.8,52.2,35.8,87.5,35.8c33,0,63-12.8,90-38.5v60.5c-28,16.7-58.5,25-91.5,25
				c-46.3,0-85.6-15.5-118-46c-35.5-33.5-53.5-75.3-53.5-126c0-53.3,17.8-96.8,53.5-130.5c30.7-29,70.8-43.5,120.5-43.5
				C803.2,1408.2,832.8,1416.2,857.8,1432.2z"/>
			<polygon class="st0" points="1104.8,1414.2 1104.8,1462.2 971.8,1462.2 971.8,1541.7 1100.8,1541.7 1100.8,1589.7 971.8,1589.7 
				971.8,1699.7 1104.8,1699.7 1104.8,1747.7 920.8,1747.7 920.8,1414.2 			"/>
		</g>
		<g>
			<path class="st0" d="M680.7,1432.2v60c-27.3-24.7-57.5-37-90.5-37c-36,0-65.3,11.9-87.8,35.8c-22.5,23.8-33.8,54.3-33.8,91.3
				c0,35.7,11.5,65.4,34.5,89.3c23,23.8,52.2,35.8,87.5,35.8c33,0,63-12.8,90-38.5v60.5c-28,16.7-58.5,25-91.5,25
				c-46.3,0-85.6-15.5-118-46c-35.5-33.5-53.5-75.3-53.5-126c0-53.3,17.8-96.8,53.5-130.5c30.7-29,70.8-43.5,120.5-43.5
				C626,1408.2,655.7,1416.2,680.7,1432.2z"/>
			<polygon class="st0" points="927.7,1414.2 927.7,1462.2 794.7,1462.2 794.7,1541.7 923.7,1541.7 923.7,1589.7 794.7,1589.7 
				794.7,1699.7 927.7,1699.7 927.7,1747.7 743.7,1747.7 743.7,1414.2 			"/>
		</g>
		<g>
			<path class="st0" d="M503.5,1432.2v60c-27.3-24.7-57.5-37-90.5-37c-36,0-65.3,11.9-87.8,35.8c-22.5,23.8-33.8,54.3-33.8,91.3
				c0,35.7,11.5,65.4,34.5,89.3c23,23.8,52.2,35.8,87.5,35.8c33,0,63-12.8,90-38.5v60.5c-28,16.7-58.5,25-91.5,25
				c-46.3,0-85.6-15.5-118-46c-35.5-33.5-53.5-75.3-53.5-126c0-53.3,17.8-96.8,53.5-130.5c30.7-29,70.8-43.5,120.5-43.5
				C448.8,1408.2,478.5,1416.2,503.5,1432.2z"/>
			<polygon class="st0" points="750.5,1414.2 750.5,1462.2 617.5,1462.2 617.5,1541.7 746.5,1541.7 746.5,1589.7 617.5,1589.7 
				617.5,1699.7 750.5,1699.7 750.5,1747.7 566.5,1747.7 566.5,1414.2 			"/>
		</g>
		<g>
			<path class="st0" d="M326.3,1432.2v60c-27.3-24.7-57.5-37-90.5-37c-36,0-65.3,11.9-87.8,35.8c-22.5,23.8-33.8,54.3-33.8,91.3
				c0,35.7,11.5,65.4,34.5,89.3c23,23.8,52.2,35.8,87.5,35.8c33,0,63-12.8,90-38.5v60.5c-28,16.7-58.5,25-91.5,25
				c-46.3,0-85.7-15.3-118-46c-35.7-33.3-53.5-75.3-53.5-126c0-53.3,17.8-96.8,53.5-130.5c30.7-29,70.8-43.5,120.5-43.5
				C271.6,1408.2,301.3,1416.2,326.3,1432.2z"/>
			<path class="st0" d="M573.3,1414.2v48h-133v79.5h129v48h-129v110h133v48h-184v-333.5H573.3z"/>
		</g>
	</g>
</g>
<g id="Layer_3_1_">
	<g>
		<path d="M248.4,173.2v48h-133v79.5h129v48h-129v110h133v48h-184V173.2H248.4z"/>
		<path d="M314.4,173.2h51v201c0,26,3.5,45.2,10.5,57.5c5.7,9.3,14,17.4,25,24.3c11,6.8,23.3,10.3,37,10.3c13.7,0,26-3.4,37-10.3
			c11-6.8,19.3-14.9,25-24.3c7-12.3,10.5-31.5,10.5-57.5v-201h51v214.5c0,35-10.3,63.8-31,86.5c-24,26-54.8,39-92.5,39
			c-37.7,0-68.5-13-92.5-39c-20.7-22.7-31-51.5-31-86.5V173.2z"/>
	</g>
	<g>
		<path d="M64.3,586.8h59.5c39.3,0,68.7,6.5,88,19.5c26.3,17.7,39.5,43.8,39.5,78.5c0,23.7-6.8,43.8-20.3,60.5
			c-13.5,16.7-31.4,27.5-53.8,32.5l104,142.5h-61.5l-95.5-136.5h-9v136.5h-51V586.8z M115.3,633.8v106h16c4.3,0,8.7-0.2,13-0.5
			c4.3-0.3,10.3-1.5,17.8-3.5s14-4.8,19.5-8.3s10.3-8.9,14.5-16.3c4.2-7.3,6.3-16,6.3-26c0-34.3-23.2-51.5-69.5-51.5H115.3z"/>
		<path d="M400.8,920.3v-144L291.3,586.8h58l77,133.5l77-133.5h58L451.8,776.3v144H400.8z"/>
	</g>
	<g>
		<path d="M64.3,1000.7h70c26.3,0,49.3,2.3,69,6.8c19.7,4.5,38,13.1,55,25.8c20.3,15.3,36.1,34.7,47.3,58
			c11.2,23.3,16.8,48.8,16.8,76.5c0,58.3-22.3,103.2-67,134.5c-18,12.7-36.3,21.2-55,25.5c-18.7,4.3-41,6.5-67,6.5h-69V1000.7z
			 M115.3,1048.7v237.5h22c38,0,67.5-7.8,88.5-23.5c30.3-23,45.5-54.7,45.5-95c0-20.7-4.3-39.5-12.8-56.5
			c-8.5-17-19.3-30.2-32.3-39.5c-21.3-15.3-51-23-89-23H115.3z"/>
		<path d="M386.3,1000.7h51v333.5h-51V1000.7z"/>
	</g>
	<g>
		<path d="M327.5,1432.4v60c-27.3-24.7-57.5-37-90.5-37c-36,0-65.3,11.9-87.8,35.8c-22.5,23.8-33.7,54.3-33.7,91.3
			c0,35.7,11.5,65.4,34.5,89.3c23,23.8,52.2,35.8,87.5,35.8c33,0,63-12.8,90-38.5v60.5c-28,16.7-58.5,25-91.5,25
			c-46.3,0-85.7-15.3-118-46c-35.7-33.3-53.5-75.3-53.5-126c0-53.3,17.8-96.8,53.5-130.5c30.7-29,70.8-43.5,120.5-43.5
			C272.9,1408.4,302.5,1416.4,327.5,1432.4z"/>
		<path d="M574.5,1414.4v48h-133v79.5h129v48h-129v110h133v48h-184v-333.5H574.5z"/>
	</g>
</g>
</svg>
