<?xml version="1.0" encoding="utf-8"?>
<!-- Generator: Adobe Illustrator 21.0.2, SVG Export Plug-In . SVG Version: 6.00 Build 0)  -->
<svg version="1.1" id="Layer_1" xmlns="http://www.w3.org/2000/svg" xmlns:xlink="http://www.w3.org/1999/xlink" x="0px" y="0px"
	 width="21.9px" height="21.9px" viewBox="0 0 21.9 21.9" style="enable-background:new 0 0 21.9 21.9;" xml:space="preserve">
<style type="text/css">
	.st0{fill:none;}
	.st1{fill:#FFFFFF;}
</style>
<g>
	<path class="st0" d="M-1.4,23.4V-1.4h24.8v24.8H-1.4z"/>
	<g>
		<path class="st1" d="M6.5,0.1C3,0.1,0.1,2.9,0.1,6.5v8.9c0,3.6,2.9,6.5,6.5,6.5h8.9c3.6,0,6.5-2.9,6.5-6.5V6.5
			c0-3.6-2.9-6.5-6.5-6.5L6.5,0.1z M6.5,1h8.9c3,0,5.5,2.4,5.5,5.5v8.9c0,3-2.4,5.5-5.5,5.5H6.5c-3,0-5.5-2.4-5.5-5.5V6.5
			C1.1,3.5,3.5,1,6.5,1z M16.9,4c-0.5,0-1,0.4-1,1s0.4,1,1,1s1-0.4,1-1S17.5,4,16.9,4z M11,5.5C8,5.5,5.5,8,5.5,11S8,16.4,11,16.4
			s5.5-2.5,5.5-5.5S14,5.5,11,5.5z M11,6.5c2.5,0,4.5,2,4.5,4.5s-2,4.5-4.5,4.5s-4.5-2-4.5-4.5S8.5,6.5,11,6.5z"/>
	</g>
</g>
</svg>
