<?xml version="1.0" encoding="utf-8"?>
<!-- Generator: Adobe Illustrator 21.0.2, SVG Export Plug-In . SVG Version: 6.00 Build 0)  -->
<svg version="1.1" id="Layer_1" xmlns="http://www.w3.org/2000/svg" xmlns:xlink="http://www.w3.org/1999/xlink" x="0px" y="0px"
	 width="22.3px" height="22px" viewBox="0 0 22.3 22" style="enable-background:new 0 0 22.3 22;" xml:space="preserve">
<style type="text/css">
	.st0{fill:none;}
	.st1{fill:#FFFFFF;}
</style>
<g>
	<path class="st0" d="M-3.8,26V-4h30v30H-3.8z"/>
	<g>
		<path class="st1" d="M20.2,0h-18c-1.1,0-2,0.9-2,2v18c0,1.1,0.9,2,2,2h10v-9h-3v-3h3V8.4c0-3,1.5-4.4,4-4.4c1.2,0,1.9,0.1,2.2,0.1
			V7h-1.7c-1.1,0-1.5,0.6-1.5,1.7V10h3.2l-0.4,3h-2.7v9h5c1.1,0,2-0.9,2-2V2C22.2,0.9,21.3,0,20.2,0z"/>
	</g>
</g>
</svg>
