<?xml version="1.0" encoding="utf-8"?>
<!-- Generator: Adobe Illustrator 21.0.2, SVG Export Plug-In . SVG Version: 6.00 Build 0)  -->
<svg version="1.1" id="Layer_1" xmlns="http://www.w3.org/2000/svg" xmlns:xlink="http://www.w3.org/1999/xlink" x="0px" y="0px"
	 width="22.1px" height="22.2px" viewBox="0 0 22.1 22.2" style="enable-background:new 0 0 22.1 22.2;" xml:space="preserve">
<style type="text/css">
	.st0{fill:none;}
	.st1{fill:#FFFFFF;}
</style>
<g>
	<path class="st0" d="M-4,26.1v-30h30v30H-4z"/>
	<g>
		<path class="st1" d="M20,0.1H2c-1.1,0-2,0.9-2,2v18c0,1.1,0.9,2,2,2h18c1.1,0,2-0.9,2-2v-18C22,1,21.1,0.1,20,0.1z M17.4,15.1
			l-1.9,0c0,0-0.4,0.1-0.9-0.3c-0.7-0.5-1.4-1.7-1.9-1.6c-0.5,0.2-0.5,1.3-0.5,1.3s0,0.2-0.1,0.3C11.9,15,11.7,15,11.7,15h-0.8
			c0,0-1.8,0.2-3.5-1.5C5.6,11.6,4,8,4,8S3.9,7.8,4,7.6c0.1-0.1,0.4-0.1,0.4-0.1l2,0c0,0,0.2,0,0.3,0.1C6.9,7.7,7,7.9,7,7.9
			s0.3,0.8,0.8,1.6c0.8,1.4,1.2,1.8,1.5,1.6c0.4-0.2,0.3-2,0.3-2s0-0.7-0.2-1C9.1,7.8,8.8,7.7,8.7,7.7C8.6,7.7,8.7,7.4,9,7.3
			c0.4-0.2,1-0.2,1.7-0.2c0.6,0,0.8,0,1,0.1c0.7,0.2,0.5,0.8,0.5,2.4c0,0.5-0.1,1.2,0.3,1.4c0.2,0.1,0.5,0,1.5-1.6
			c0.4-0.8,0.8-1.6,0.8-1.6s0.1-0.2,0.2-0.2c0.1-0.1,0.3,0,0.3,0l2.1,0c0,0,0.6-0.1,0.7,0.2c0.1,0.3-0.2,1-1.1,2.1
			c-1.4,1.9-1.6,1.7-0.4,2.8c1.1,1,1.4,1.5,1.4,1.6C18.3,15.1,17.4,15.1,17.4,15.1z"/>
	</g>
</g>
</svg>
