<?xml version="1.0" encoding="utf-8"?>
<!-- Generator: Adobe Illustrator 21.0.2, SVG Export Plug-In . SVG Version: 6.00 Build 0)  -->
<svg version="1.1" xmlns="http://www.w3.org/2000/svg" xmlns:xlink="http://www.w3.org/1999/xlink" x="0px" y="0px" width="841.3px"
	 height="439px" viewBox="0 0 841.3 439" style="enable-background:new 0 0 841.3 439;" xml:space="preserve">
<style type="text/css">
	.st0{fill:none;stroke:#FFFFFF;stroke-width:11;stroke-miterlimit:10;}
	.st1{display:none;}
	.st2{display:inline;}
	.st3{fill:#FFFFFF;}
	.st4{font-family:'FuturaMediumC';}
	.st5{font-size:145.7935px;}
</style>
<g id="Layer_1">
	<g id="Layer_11">
		<rect x="-0.9" width="843.1" height="439.4"/>
	</g>
</g>
<g id="Layer_2">
	<line class="st0" x1="0.3" y1="232.1" x2="842.2" y2="232.1"/>
	<line class="st0" x1="-0.3" y1="5.6" x2="841.6" y2="5.6"/>
	<line class="st0" x1="-0.3" y1="307.7" x2="841.6" y2="307.7"/>
	<line class="st0" x1="0.3" y1="156.6" x2="842.2" y2="156.6"/>
	<line class="st0" x1="0.3" y1="81.1" x2="842.2" y2="81.1"/>
</g>
<g id="Layer_3" class="st1">
	<g id="Layer_2_copy" class="st2">
		<g>
			<text transform="matrix(-1 0 0 -1 593.2666 126.4099)" class="st3 st4 st5">о</text>
			<path class="st3" d="M578.1,156.2c0,12.9-9.9,23.6-23.4,23.6c-13.4,0-23.3-10.5-23.3-23.6c0-12.9,9.9-23.6,23.4-23.6
				C568.3,132.7,578.1,143.2,578.1,156.2z"/>
		</g>
		<g>
			<text transform="matrix(-1 0 0 -1 693.6318 88.402)" class="st3 st4 st5">о</text>
			<path class="st3" d="M678.5,119.3c0,12.9-9.9,23.6-23.4,23.6c-13.4,0-23.3-10.5-23.3-23.6c0-12.9,9.9-23.6,23.4-23.6
				C668.6,95.7,678.5,106.3,678.5,119.3z"/>
		</g>
		<g>
			<text transform="matrix(-1 0 0 -1 458.2529 163.8024)" class="st3 st4 st5">о</text>
			<path class="st3" d="M443.1,194.7c0,12.9-9.9,23.6-23.4,23.6c-13.4,0-23.3-10.5-23.3-23.6c0-12.9,9.9-23.6,23.4-23.6
				C433.2,171.1,443.1,181.7,443.1,194.7z"/>
		</g>
		<g>
			<text transform="matrix(-1 0 0 -1 794.4775 88.2028)" class="st3 st4 st5">о</text>
			<path class="st3" d="M779.3,119.1c0,12.9-9.9,23.6-23.4,23.6c-13.4,0-23.3-10.5-23.3-23.6c0-12.9,9.9-23.6,23.4-23.6
				S779.3,106.1,779.3,119.1z"/>
		</g>
		<g>
			<text transform="matrix(-1 0 0 -1 358.0117 201.8728)" class="st3 st4 st5">о</text>
			<path class="st3" d="M342.9,232.8c0,12.9-9.9,23.6-23.4,23.6c-13.4,0-23.3-10.5-23.3-23.6c0-12.9,9.9-23.6,23.4-23.6
				C333,209.2,342.9,219.8,342.9,232.8z"/>
		</g>
		<g>
			<text transform="matrix(-1 0 0 -1 122.71 50.8415)" class="st3 st4 st5">о</text>
			<path class="st3" d="M107.6,81.7c0,12.9-9.9,23.6-23.4,23.6c-13.4,0-23.3-10.5-23.3-23.6c0-12.9,9.9-23.6,23.4-23.6
				C97.7,58.2,107.6,68.7,107.6,81.7z"/>
		</g>
		<g>
			<text transform="matrix(-1 0 0 -1 257.6533 163.9255)" class="st3 st4 st5">о</text>
			<path class="st3" d="M242.5,194.8c0,12.9-9.9,23.6-23.4,23.6c-13.4,0-23.3-10.5-23.3-23.6c0-12.9,9.9-23.6,23.4-23.6
				C232.6,171.3,242.5,181.8,242.5,194.8z"/>
		</g>
	</g>
</g>
</svg>
