<?xml version="1.0" encoding="utf-8"?>
<!-- Generator: Adobe Illustrator 21.0.2, SVG Export Plug-In . SVG Version: 6.00 Build 0)  -->
<svg version="1.1" id="Layer_1" xmlns="http://www.w3.org/2000/svg" xmlns:xlink="http://www.w3.org/1999/xlink" x="0px" y="0px"
	 width="73.7px" height="80px" viewBox="0 0 73.7 80" style="enable-background:new 0 0 73.7 80;" xml:space="preserve">
<style type="text/css">
	.st0{display:none;}
	.st1{display:inline;}
	.st2{display:inline;fill:none;stroke:#FFFFFF;stroke-width:11;stroke-miterlimit:10;}
	.st3{fill:#FFFFFF;}
	.st4{font-family:'FuturaMediumC';}
	.st5{font-size:145.7935px;}
</style>
<g id="Layer_1_1_" class="st0">
	<g id="Layer_11" class="st1">
		<rect x="-49.9" y="-38" width="843.1" height="439.4"/>
	</g>
</g>
<g id="Layer_2" class="st0">
	<line class="st2" x1="-48.7" y1="194.1" x2="793.2" y2="194.1"/>
	<line class="st2" x1="-49.3" y1="-32.4" x2="792.6" y2="-32.4"/>
	<line class="st2" x1="-49.3" y1="269.7" x2="792.6" y2="269.7"/>
	<line class="st2" x1="-48.7" y1="118.6" x2="793.2" y2="118.6"/>
	<line class="st2" x1="-48.7" y1="43.1" x2="793.2" y2="43.1"/>
</g>
<g id="Layer_3">
	<g id="Layer_2_copy">
		<g>
			<text transform="matrix(-1 0 0 -1 73.71 12.8418)" class="st3 st4 st5">о</text>
			<path class="st3" d="M58.6,43.7c0,12.9-9.9,23.6-23.4,23.6c-13.4,0-23.3-10.5-23.3-23.6c0-12.9,9.9-23.6,23.4-23.6
				C48.7,20.2,58.6,30.7,58.6,43.7z"/>
		</g>
	</g>
</g>
<g id="Layer_4" class="st0">
	<g class="st1">
		<text transform="matrix(-1 0 0 -1 524.2666 50.3301)" class="st3 st4 st5">о</text>
		<path class="st3" d="M509.1,80.1c0,12.9-9.9,23.6-23.4,23.6c-13.4,0-23.3-10.5-23.3-23.6c0-12.9,9.9-23.6,23.4-23.6
			C499.3,56.6,509.1,67.1,509.1,80.1z"/>
	</g>
	<g class="st1">
		<text transform="matrix(-1 0 0 -1 624.6318 12.3223)" class="st3 st4 st5">о</text>
		<path class="st3" d="M609.5,43.2c0,12.9-9.9,23.6-23.4,23.6c-13.4,0-23.3-10.5-23.3-23.6c0-12.9,9.9-23.6,23.4-23.6
			C599.6,19.6,609.5,30.2,609.5,43.2z"/>
	</g>
	<g class="st1">
		<text transform="matrix(-1 0 0 -1 389.2529 87.7227)" class="st3 st4 st5">о</text>
		<path class="st3" d="M374.1,118.6c0,12.9-9.9,23.6-23.4,23.6c-13.4,0-23.3-10.5-23.3-23.6c0-12.9,9.9-23.6,23.4-23.6
			C364.2,95,374.1,105.6,374.1,118.6z"/>
	</g>
	<g class="st1">
		<text transform="matrix(-1 0 0 -1 725.4775 12.123)" class="st3 st4 st5">о</text>
		<path class="st3" d="M710.3,43c0,12.9-9.9,23.6-23.4,23.6c-13.4,0-23.3-10.5-23.3-23.6c0-12.9,9.9-23.6,23.4-23.6
			S710.3,30,710.3,43z"/>
	</g>
	<g class="st1">
		<text transform="matrix(-1 0 0 -1 289.0117 125.793)" class="st3 st4 st5">о</text>
		<path class="st3" d="M273.9,156.7c0,12.9-9.9,23.6-23.4,23.6c-13.4,0-23.3-10.5-23.3-23.6c0-12.9,9.9-23.6,23.4-23.6
			C264,133.1,273.9,143.7,273.9,156.7z"/>
	</g>
	<g class="st1">
		<text transform="matrix(-1 0 0 -1 188.6533 87.8457)" class="st3 st4 st5">о</text>
		<path class="st3" d="M173.5,118.7c0,12.9-9.9,23.6-23.4,23.6c-13.4,0-23.3-10.5-23.3-23.6c0-12.9,9.9-23.6,23.4-23.6
			C163.6,95.2,173.5,105.7,173.5,118.7z"/>
	</g>
</g>
</svg>
