<?xml version="1.0" encoding="utf-8"?>
<!-- Generator: Adobe Illustrator 21.0.2, SVG Export Plug-In . SVG Version: 6.00 Build 0)  -->
<svg version="1.1" id="Layer_1" xmlns="http://www.w3.org/2000/svg" xmlns:xlink="http://www.w3.org/1999/xlink" x="0px" y="0px"
	 width="75.6px" height="232px" viewBox="0 0 75.6 232" style="enable-background:new 0 0 75.6 232;" xml:space="preserve">
<style type="text/css">
	.st0{display:none;}
	.st1{display:inline;}
	.st2{display:inline;fill:none;stroke:#FFFFFF;stroke-width:11;stroke-miterlimit:10;}
	.st3{fill:#FFFFFF;}
	.st4{font-family:'FuturaMediumC';}
	.st5{font-size:145.7935px;}
</style>
<g id="Layer_1_1_" class="st0">
	<g id="Layer_11" class="st1">
		<rect x="-257.9" width="843.1" height="439.4"/>
	</g>
</g>
<g id="Layer_2" class="st0">
	<line class="st2" x1="-256.7" y1="232.1" x2="585.2" y2="232.1"/>
	<line class="st2" x1="-257.3" y1="5.6" x2="584.6" y2="5.6"/>
	<line class="st2" x1="-257.3" y1="307.7" x2="584.6" y2="307.7"/>
	<line class="st2" x1="-256.7" y1="156.6" x2="585.2" y2="156.6"/>
	<line class="st2" x1="-256.7" y1="81.1" x2="585.2" y2="81.1"/>
</g>
<g id="Layer_3" class="st0">
	<g id="Layer_2_copy" class="st1">
		<g>
			<text transform="matrix(-1 0 0 -1 -134.29 50.8418)" class="st3 st4 st5">о</text>
			<path class="st3" d="M-149.4,81.7c0,12.9-9.9,23.6-23.4,23.6c-13.4,0-23.3-10.5-23.3-23.6c0-12.9,9.9-23.6,23.4-23.6
				C-159.3,58.2-149.4,68.7-149.4,81.7z"/>
		</g>
	</g>
</g>
<g id="Layer_4" class="st0">
	<g class="st1">
		<text transform="matrix(-1 0 0 -1 -19.3467 125.8457)" class="st3 st4 st5">о</text>
		<path class="st3" d="M-34.5,156.7c0,12.9-9.9,23.6-23.4,23.6c-13.4,0-23.3-10.5-23.3-23.6c0-12.9,9.9-23.6,23.4-23.6
			C-44.4,133.2-34.5,143.7-34.5,156.7z"/>
	</g>
</g>
<g id="Layer_5">
	<g>
		<text transform="matrix(-1 0 0 -1 75.584 163.8105)" class="st3 st4 st5">о</text>
		<path class="st3" d="M60.5,194.7c0,12.9-9.9,23.6-23.4,23.6c-13.4,0-23.3-10.5-23.3-23.6c0-12.9,9.9-23.6,23.4-23.6
			C50.6,171.1,60.5,181.7,60.5,194.7z"/>
	</g>
</g>
<g id="Layer_6" class="st0">
	<g class="st1">
		<text transform="matrix(-1 0 0 -1 310.3994 88.1602)" class="st3 st4 st5">о</text>
		<path class="st3" d="M295.2,117.9c0,12.9-9.9,23.6-23.4,23.6c-13.4,0-23.3-10.5-23.3-23.6c0-12.9,9.9-23.6,23.4-23.6
			C285.4,94.4,295.2,104.9,295.2,117.9z"/>
	</g>
	<g class="st1">
		<text transform="matrix(-1 0 0 -1 410.7646 50.1523)" class="st3 st4 st5">о</text>
		<path class="st3" d="M395.6,81c0,12.9-9.9,23.6-23.4,23.6c-13.4,0-23.3-10.5-23.3-23.6c0-12.9,9.9-23.6,23.4-23.6
			C385.7,57.4,395.6,68,395.6,81z"/>
	</g>
	<g class="st1">
		<text transform="matrix(-1 0 0 -1 175.3857 125.5527)" class="st3 st4 st5">о</text>
		<path class="st3" d="M160.2,156.4c0,12.9-9.9,23.6-23.4,23.6c-13.4,0-23.3-10.5-23.3-23.6c0-12.9,9.9-23.6,23.4-23.6
			C150.3,132.8,160.2,143.4,160.2,156.4z"/>
	</g>
	<g class="st1">
		<text transform="matrix(-1 0 0 -1 511.6104 49.9531)" class="st3 st4 st5">о</text>
		<path class="st3" d="M496.4,80.8c0,12.9-9.9,23.6-23.4,23.6c-13.4,0-23.3-10.5-23.3-23.6c0-12.9,9.9-23.6,23.4-23.6
			S496.4,67.8,496.4,80.8z"/>
	</g>
</g>
</svg>
