<?xml version="1.0" encoding="utf-8"?>
<!-- Generator: Adobe Illustrator 21.0.2, SVG Export Plug-In . SVG Version: 6.00 Build 0)  -->
<svg version="1.1" id="Layer_1" xmlns="http://www.w3.org/2000/svg" xmlns:xlink="http://www.w3.org/1999/xlink" x="0px" y="0px"
	 width="75.5px" height="114px" viewBox="0 0 75.5 114" style="enable-background:new 0 0 75.5 114;" xml:space="preserve">
<style type="text/css">
	.st0{display:none;}
	.st1{display:inline;}
	.st2{display:inline;fill:none;stroke:#FFFFFF;stroke-width:11;stroke-miterlimit:10;}
	.st3{fill:#FFFFFF;}
	.st4{font-family:'FuturaMediumC';}
	.st5{font-size:145.7935px;}
</style>
<g id="Layer_1_1_" class="st0">
	<g id="Layer_11" class="st1">
		<rect x="-561.9" width="843.1" height="439.4"/>
	</g>
</g>
<g id="Layer_2" class="st0">
	<line class="st2" x1="-560.7" y1="232.1" x2="281.2" y2="232.1"/>
	<line class="st2" x1="-561.3" y1="5.6" x2="280.6" y2="5.6"/>
	<line class="st2" x1="-561.3" y1="307.7" x2="280.6" y2="307.7"/>
	<line class="st2" x1="-560.7" y1="156.6" x2="281.2" y2="156.6"/>
	<line class="st2" x1="-560.7" y1="81.1" x2="281.2" y2="81.1"/>
</g>
<g id="Layer_3" class="st0">
	<g id="Layer_2_copy" class="st1">
		<g>
			<text transform="matrix(-1 0 0 -1 -438.29 50.8418)" class="st3 st4 st5">о</text>
			<path class="st3" d="M-453.4,81.7c0,12.9-9.9,23.6-23.4,23.6c-13.4,0-23.3-10.5-23.3-23.6c0-12.9,9.9-23.6,23.4-23.6
				C-463.3,58.2-453.4,68.7-453.4,81.7z"/>
		</g>
	</g>
</g>
<g id="Layer_4" class="st0">
	<g class="st1">
		<text transform="matrix(-1 0 0 -1 -323.3467 125.8457)" class="st3 st4 st5">о</text>
		<path class="st3" d="M-338.5,156.7c0,12.9-9.9,23.6-23.4,23.6c-13.4,0-23.3-10.5-23.3-23.6c0-12.9,9.9-23.6,23.4-23.6
			C-348.4,133.2-338.5,143.7-338.5,156.7z"/>
	</g>
</g>
<g id="Layer_5" class="st0">
</g>
<g id="Layer_6" class="st0">
	<g class="st1">
		<text transform="matrix(-1 0 0 -1 -128.6143 125.5527)" class="st3 st4 st5">о</text>
		<path class="st3" d="M-143.8,156.4c0,12.9-9.9,23.6-23.4,23.6c-13.4,0-23.3-10.5-23.3-23.6c0-12.9,9.9-23.6,23.4-23.6
			C-153.7,132.8-143.8,143.4-143.8,156.4z"/>
	</g>
</g>
<g id="Layer_8">
	<g>
		<text transform="matrix(-1 0 0 -1 75.5205 48.918)" class="st3 st4 st5">о</text>
		<path class="st3" d="M60.4,79.8c0,12.9-9.9,23.6-23.4,23.6c-13.4,0-23.3-10.5-23.3-23.6c0-12.9,9.9-23.6,23.4-23.6
			C50.5,56.2,60.4,66.8,60.4,79.8z"/>
	</g>
</g>
<g id="Layer_9" class="st0">
	<g class="st1">
		<text transform="matrix(-1 0 0 -1 171.5703 48.918)" class="st3 st4 st5">о</text>
		<path class="st3" d="M156.4,79.8c0,12.9-9.9,23.6-23.4,23.6c-13.4,0-23.3-10.5-23.3-23.6c0-12.9,9.9-23.6,23.4-23.6
			S156.4,66.8,156.4,79.8z"/>
	</g>
</g>
</svg>
