<?xml version="1.0" encoding="utf-8"?>
<!-- Generator: Adobe Illustrator 21.0.2, SVG Export Plug-In . SVG Version: 6.00 Build 0)  -->
<svg version="1.1" id="Layer_1" xmlns="http://www.w3.org/2000/svg" xmlns:xlink="http://www.w3.org/1999/xlink" x="0px" y="0px"
	 width="595.3px" height="841.3px" viewBox="0 0 595.3 841.3" style="enable-background:new 0 0 595.3 841.3;" xml:space="preserve"
	>
<style type="text/css">
	.st0{fill:none;stroke:#FFFFFF;stroke-width:11;stroke-miterlimit:10;}
	.st1{fill:#FFFFFF;}
	.st2{font-family:'FuturaMediumC';}
	.st3{font-size:145.7935px;}
</style>
<g id="Layer_11">
	<rect y="-0.3" width="595.3" height="843.1"/>
</g>
<g id="Layer_6">
</g>
<g id="Layer_2_copy">
	<line class="st0" x1="379.8" y1="841.3" x2="379.8" y2="-0.6"/>
	<line class="st0" x1="153.3" y1="841.9" x2="153.3" y2="0"/>
	<g>
		<text transform="matrix(6.123234e-17 1 -1 6.123234e-17 236.1094 248.5318)" class="st1 st2 st3">о</text>
		<path class="st1" d="M265.9,263.7c12.9,0,23.6,9.9,23.6,23.4c0,13.4-10.5,23.3-23.6,23.3c-12.9,0-23.6-9.9-23.6-23.4
			C242.4,273.5,252.9,263.7,265.9,263.7z"/>
	</g>
	<g>
		<text transform="matrix(6.123234e-17 1 -1 6.123234e-17 198.1016 148.1672)" class="st1 st2 st3">о</text>
		<path class="st1" d="M229,163.3c12.9,0,23.6,9.9,23.6,23.4c0,13.4-10.5,23.3-23.6,23.3c-12.9,0-23.6-9.9-23.6-23.4
			C205.4,173.2,216,163.3,229,163.3z"/>
	</g>
	<g>
		<text transform="matrix(6.123234e-17 1 -1 6.123234e-17 273.502 383.5462)" class="st1 st2 st3">о</text>
		<path class="st1" d="M304.4,398.7c12.9,0,23.6,9.9,23.6,23.4c0,13.4-10.5,23.3-23.6,23.3c-12.9,0-23.6-9.9-23.6-23.4
			C280.8,408.6,291.4,398.7,304.4,398.7z"/>
	</g>
	<line class="st0" x1="455.4" y1="841.9" x2="455.4" y2="0"/>
	<g>
		<text transform="matrix(6.123234e-17 1 -1 6.123234e-17 197.9023 47.3212)" class="st1 st2 st3">о</text>
		<path class="st1" d="M228.8,62.5c12.9,0,23.6,9.9,23.6,23.4c0,13.4-10.5,23.3-23.6,23.3c-12.9,0-23.6-9.9-23.6-23.4
			S215.8,62.5,228.8,62.5z"/>
	</g>
	<g>
		<text transform="matrix(6.123234e-17 1 -1 6.123234e-17 311.5723 483.7872)" class="st1 st2 st3">о</text>
		<path class="st1" d="M342.5,498.9c12.9,0,23.6,9.9,23.6,23.4c0,13.4-10.5,23.3-23.6,23.3c-12.9,0-23.6-9.9-23.6-23.4
			C318.9,508.8,329.5,498.9,342.5,498.9z"/>
	</g>
	<g>
		<text transform="matrix(6.123234e-17 1 -1 6.123234e-17 160.541 719.0884)" class="st1 st2 st3">о</text>
		<path class="st1" d="M191.4,734.2c12.9,0,23.6,9.9,23.6,23.4c0,13.4-10.5,23.3-23.6,23.3c-12.9,0-23.6-9.9-23.6-23.4
			C167.9,744.1,178.4,734.2,191.4,734.2z"/>
	</g>
	<g>
		<text transform="matrix(6.123234e-17 1 -1 6.123234e-17 273.625 584.1457)" class="st1 st2 st3">о</text>
		<path class="st1" d="M304.5,599.3c12.9,0,23.6,9.9,23.6,23.4c0,13.4-10.5,23.3-23.6,23.3c-12.9,0-23.6-9.9-23.6-23.4
			C281,609.2,291.5,599.3,304.5,599.3z"/>
	</g>
</g>
<g id="Layer_10">
	<line class="st0" x1="304.3" y1="841.3" x2="304.3" y2="-0.6"/>
</g>
<g id="Layer_9">
	<line class="st0" x1="228.8" y1="841.3" x2="228.8" y2="-0.6"/>
</g>
<g id="Layer_7">
</g>
<g id="Layer_4">
</g>
</svg>
