<?xml version="1.0" encoding="utf-8"?>
<!-- Generator: Adobe Illustrator 21.0.2, SVG Export Plug-In . SVG Version: 6.00 Build 0)  -->
<svg version="1.1" id="Layer_1" xmlns="http://www.w3.org/2000/svg" xmlns:xlink="http://www.w3.org/1999/xlink" x="0px" y="0px"
	 width="73.4px" height="192px" viewBox="0 0 73.4 192" style="enable-background:new 0 0 73.4 192;" xml:space="preserve">
<style type="text/css">
	.st0{display:none;}
	.st1{display:inline;}
	.st2{display:inline;fill:none;stroke:#FFFFFF;stroke-width:11;stroke-miterlimit:10;}
	.st3{fill:#FFFFFF;}
	.st4{font-family:'FuturaMediumC';}
	.st5{font-size:145.7935px;}
</style>
<g id="Layer_1_1_" class="st0">
	<g id="Layer_11" class="st1">
		<rect x="-359.9" width="843.1" height="439.4"/>
	</g>
</g>
<g id="Layer_2" class="st0">
	<line class="st2" x1="-358.7" y1="232.1" x2="483.2" y2="232.1"/>
	<line class="st2" x1="-359.3" y1="5.6" x2="482.6" y2="5.6"/>
	<line class="st2" x1="-359.3" y1="307.7" x2="482.6" y2="307.7"/>
	<line class="st2" x1="-358.7" y1="156.6" x2="483.2" y2="156.6"/>
	<line class="st2" x1="-358.7" y1="81.1" x2="483.2" y2="81.1"/>
</g>
<g id="Layer_3" class="st0">
	<g id="Layer_2_copy" class="st1">
		<g>
			<text transform="matrix(-1 0 0 -1 -236.29 50.8418)" class="st3 st4 st5">о</text>
			<path class="st3" d="M-251.4,81.7c0,12.9-9.9,23.6-23.4,23.6c-13.4,0-23.3-10.5-23.3-23.6c0-12.9,9.9-23.6,23.4-23.6
				C-261.3,58.2-251.4,68.7-251.4,81.7z"/>
		</g>
	</g>
</g>
<g id="Layer_4" class="st0">
	<g class="st1">
		<text transform="matrix(-1 0 0 -1 -121.3467 125.8457)" class="st3 st4 st5">о</text>
		<path class="st3" d="M-136.5,156.7c0,12.9-9.9,23.6-23.4,23.6c-13.4,0-23.3-10.5-23.3-23.6c0-12.9,9.9-23.6,23.4-23.6
			C-146.4,133.2-136.5,143.7-136.5,156.7z"/>
	</g>
</g>
<g id="Layer_5" class="st0">
</g>
<g id="Layer_6">
	<g>
		<text transform="matrix(-1 0 0 -1 73.3857 125.5527)" class="st3 st4 st5">о</text>
		<path class="st3" d="M58.2,156.4c0,12.9-9.9,23.6-23.4,23.6c-13.4,0-23.3-10.5-23.3-23.6c0-12.9,9.9-23.6,23.4-23.6
			C48.3,132.8,58.2,143.4,58.2,156.4z"/>
	</g>
</g>
<g id="Layer_7" class="st0">
	<g class="st1">
		<text transform="matrix(-1 0 0 -1 179.7021 88.1914)" class="st3 st4 st5">о</text>
		<path class="st3" d="M164.5,118c0,12.9-9.9,23.6-23.4,23.6c-13.4,0-23.3-10.5-23.3-23.6c0-12.9,9.9-23.6,23.4-23.6
			C154.7,94.5,164.5,105,164.5,118z"/>
	</g>
	<g class="st1">
		<text transform="matrix(-1 0 0 -1 280.0674 50.1836)" class="st3 st4 st5">о</text>
		<path class="st3" d="M264.9,81.1c0,12.9-9.9,23.6-23.4,23.6c-13.4,0-23.3-10.5-23.3-23.6c0-12.9,9.9-23.6,23.4-23.6
			C255,57.5,264.9,68.1,264.9,81.1z"/>
	</g>
	<g class="st1">
		<text transform="matrix(-1 0 0 -1 380.9131 49.9844)" class="st3 st4 st5">о</text>
		<path class="st3" d="M365.7,80.9c0,12.9-9.9,23.6-23.4,23.6c-13.4,0-23.3-10.5-23.3-23.6c0-12.9,9.9-23.6,23.4-23.6
			S365.7,67.9,365.7,80.9z"/>
	</g>
</g>
</svg>
