<?xml version="1.0" encoding="utf-8"?>
<!-- Generator: Adobe Illustrator 21.0.2, SVG Export Plug-In . SVG Version: 6.00 Build 0)  -->
<svg version="1.1" id="Layer_1" xmlns="http://www.w3.org/2000/svg" xmlns:xlink="http://www.w3.org/1999/xlink" x="0px" y="0px"
	 width="70px" height="192px" viewBox="0 0 70 192" style="enable-background:new 0 0 70 192;" xml:space="preserve">
<style type="text/css">
	.st0{display:none;}
	.st1{display:inline;}
	.st2{display:inline;fill:none;stroke:#FFFFFF;stroke-width:11;stroke-miterlimit:10;}
	.st3{fill:#FFFFFF;}
	.st4{font-family:'FuturaMediumC';}
	.st5{font-size:145.7935px;}
</style>
<g id="Layer_1_1_" class="st0">
	<g id="Layer_11" class="st1">
		<rect x="-163.9" width="843.1" height="439.4"/>
	</g>
</g>
<g id="Layer_2" class="st0">
	<line class="st2" x1="-162.7" y1="232.1" x2="679.2" y2="232.1"/>
	<line class="st2" x1="-163.3" y1="5.6" x2="678.6" y2="5.6"/>
	<line class="st2" x1="-163.3" y1="307.7" x2="678.6" y2="307.7"/>
	<line class="st2" x1="-162.7" y1="156.6" x2="679.2" y2="156.6"/>
	<line class="st2" x1="-162.7" y1="81.1" x2="679.2" y2="81.1"/>
</g>
<g id="Layer_3" class="st0">
	<g id="Layer_2_copy" class="st1">
		<g>
			<text transform="matrix(-1 0 0 -1 -40.29 50.8418)" class="st3 st4 st5">о</text>
			<path class="st3" d="M-55.4,81.7c0,12.9-9.9,23.6-23.4,23.6c-13.4,0-23.3-10.5-23.3-23.6c0-12.9,9.9-23.6,23.4-23.6
				C-65.3,58.2-55.4,68.7-55.4,81.7z"/>
		</g>
	</g>
</g>
<g id="Layer_4">
	<g>
		<text transform="matrix(-1 0 0 -1 74.6533 125.8457)" class="st3 st4 st5">о</text>
		<path class="st3" d="M59.5,156.7c0,12.9-9.9,23.6-23.4,23.6c-13.4,0-23.3-10.5-23.3-23.6c0-12.9,9.9-23.6,23.4-23.6
			C49.6,133.2,59.5,143.7,59.5,156.7z"/>
	</g>
</g>
<g id="Layer_5" class="st0">
	<g class="st1">
		<text transform="matrix(-1 0 0 -1 404.8389 88.3477)" class="st3 st4 st5">о</text>
		<path class="st3" d="M389.7,118.1c0,12.9-9.9,23.6-23.4,23.6c-13.4,0-23.3-10.5-23.3-23.6c0-12.9,9.9-23.6,23.4-23.6
			C379.9,94.6,389.7,105.1,389.7,118.1z"/>
	</g>
	<g class="st1">
		<text transform="matrix(-1 0 0 -1 505.2041 50.3398)" class="st3 st4 st5">о</text>
		<path class="st3" d="M490.1,81.2c0,12.9-9.9,23.6-23.4,23.6c-13.4,0-23.3-10.5-23.3-23.6c0-12.9,9.9-23.6,23.4-23.6
			C480.2,57.6,490.1,68.2,490.1,81.2z"/>
	</g>
	<g class="st1">
		<text transform="matrix(-1 0 0 -1 269.8252 125.7402)" class="st3 st4 st5">о</text>
		<path class="st3" d="M254.7,156.6c0,12.9-9.9,23.6-23.4,23.6c-13.4,0-23.3-10.5-23.3-23.6c0-12.9,9.9-23.6,23.4-23.6
			C244.8,133,254.7,143.6,254.7,156.6z"/>
	</g>
	<g class="st1">
		<text transform="matrix(-1 0 0 -1 606.0498 50.1406)" class="st3 st4 st5">о</text>
		<path class="st3" d="M590.9,81c0,12.9-9.9,23.6-23.4,23.6c-13.4,0-23.3-10.5-23.3-23.6c0-12.9,9.9-23.6,23.4-23.6
			S590.9,68,590.9,81z"/>
	</g>
	<g class="st1">
		<text transform="matrix(-1 0 0 -1 169.584 163.8105)" class="st3 st4 st5">о</text>
		<path class="st3" d="M154.5,194.7c0,12.9-9.9,23.6-23.4,23.6c-13.4,0-23.3-10.5-23.3-23.6c0-12.9,9.9-23.6,23.4-23.6
			C144.6,171.1,154.5,181.7,154.5,194.7z"/>
	</g>
</g>
</svg>
