<?xml version="1.0" encoding="utf-8"?>
<!-- Generator: Adobe Illustrator 21.0.2, SVG Export Plug-In . SVG Version: 6.00 Build 0)  -->
<svg version="1.1" xmlns="http://www.w3.org/2000/svg" xmlns:xlink="http://www.w3.org/1999/xlink" x="0px" y="0px" width="186.3px"
	 height="118.4px" viewBox="0 0 186.3 118.4" style="enable-background:new 0 0 186.3 118.4;" xml:space="preserve">
<style type="text/css">
	.st0{display:none;}
	.st1{display:inline;}
	.st2{display:inline;fill:none;stroke:#FFFFFF;stroke-width:11;stroke-miterlimit:10;}
	.st3{fill:#FFFFFF;}
	.st4{font-family:'FuturaMediumC';}
	.st5{font-size:145.7935px;}
</style>
<g id="Layer_1">
	<g id="Layer_11" class="st0">
		<rect x="-655.9" class="st1" width="843.1" height="439.4"/>
	</g>
</g>
<g id="Layer_2" class="st0">
	<line class="st2" x1="-654.7" y1="232.1" x2="187.2" y2="232.1"/>
	<line class="st2" x1="-655.3" y1="5.6" x2="186.6" y2="5.6"/>
	<line class="st2" x1="-655.3" y1="307.7" x2="186.6" y2="307.7"/>
	<line class="st2" x1="-654.7" y1="156.6" x2="187.2" y2="156.6"/>
	<line class="st2" x1="-654.7" y1="81.1" x2="187.2" y2="81.1"/>
</g>
<g id="Layer_3" class="st0">
	<g id="Layer_2_copy" class="st1">
		<g>
			<text transform="matrix(-1 0 0 -1 -532.2906 50.8415)" class="st3 st4 st5">о</text>
			<path class="st3" d="M-547.4,81.7c0,12.9-9.9,23.6-23.4,23.6c-13.4,0-23.3-10.5-23.3-23.6c0-12.9,9.9-23.6,23.4-23.6
				C-557.3,58.2-547.4,68.7-547.4,81.7z"/>
		</g>
	</g>
</g>
<g id="Layer_4" class="st0">
	<g class="st1">
		<text transform="matrix(-1 0 0 -1 -417.3473 125.8454)" class="st3 st4 st5">о</text>
		<path class="st3" d="M-432.5,156.7c0,12.9-9.9,23.6-23.4,23.6c-13.4,0-23.3-10.5-23.3-23.6c0-12.9,9.9-23.6,23.4-23.6
			C-442.4,133.2-432.5,143.7-432.5,156.7z"/>
	</g>
</g>
<g id="Layer_5" class="st0">
</g>
<g id="Layer_6" class="st0">
	<g class="st1">
		<text transform="matrix(-1 0 0 -1 -222.6148 125.5524)" class="st3 st4 st5">о</text>
		<path class="st3" d="M-237.8,156.4c0,12.9-9.9,23.6-23.4,23.6c-13.4,0-23.3-10.5-23.3-23.6c0-12.9,9.9-23.6,23.4-23.6
			C-247.7,132.8-237.8,143.4-237.8,156.4z"/>
	</g>
</g>
<g id="Layer_8" class="st0">
	<g class="st1">
		<text transform="matrix(-1 0 0 -1 -18.4801 48.9177)" class="st3 st4 st5">о</text>
		<path class="st3" d="M-33.6,79.8c0,12.9-9.9,23.6-23.4,23.6c-13.4,0-23.3-10.5-23.3-23.6c0-12.9,9.9-23.6,23.4-23.6
			C-43.5,56.2-33.6,66.8-33.6,79.8z"/>
	</g>
</g>
<g id="Layer_9">
	<g>
		<text transform="matrix(-1 0 0 -1 77.5697 48.9177)" class="st3 st4 st5">о</text>
		<path class="st3" d="M62.4,79.8c0,12.9-9.9,23.6-23.4,23.6c-13.4,0-23.3-10.5-23.3-23.6c0-12.9,9.9-23.6,23.4-23.6
			S62.4,66.8,62.4,79.8z"/>
	</g>
</g>
</svg>
