<?xml version="1.0" encoding="utf-8"?>
<!-- Generator: Adobe Illustrator 21.0.2, SVG Export Plug-In . SVG Version: 6.00 Build 0)  -->
<svg version="1.1" id="Layer_1" xmlns="http://www.w3.org/2000/svg" xmlns:xlink="http://www.w3.org/1999/xlink" x="0px" y="0px"
	 width="841.3px" height="439px" viewBox="0 0 841.3 439" style="enable-background:new 0 0 841.3 439;" xml:space="preserve">
<style type="text/css">
	.st0{fill:none;stroke:#FFFFFF;stroke-width:11;stroke-miterlimit:10;}
	.st1{fill:#FFFFFF;}
	.st2{font-family:'FuturaMediumC';}
	.st3{font-size:145.7935px;}
</style>
<g id="Layer_11">
	<rect x="-0.9" width="843.1" height="439.4"/>
</g>
<g id="Layer_6">
</g>
<g id="Layer_2_copy">
	<line class="st0" x1="0.3" y1="231.8" x2="842.2" y2="231.8"/>
	<line class="st0" x1="-0.3" y1="5.3" x2="841.6" y2="5.3"/>
	<g>
		<text transform="matrix(-1 0 0 -1 593.0674 88.0622)" class="st1 st2 st3">о</text>
		<path class="st1" d="M577.9,117.9c0,12.9-9.9,23.6-23.4,23.6c-13.4,0-23.3-10.5-23.3-23.6c0-12.9,9.9-23.6,23.4-23.6
			C568.1,94.4,577.9,104.9,577.9,117.9z"/>
	</g>
	<g>
		<text transform="matrix(-1 0 0 -1 693.4326 50.0544)" class="st1 st2 st3">о</text>
		<path class="st1" d="M678.3,81c0,12.9-9.9,23.6-23.4,23.6c-13.4,0-23.3-10.5-23.3-23.6c0-12.9,9.9-23.6,23.4-23.6
			C668.4,57.4,678.3,68,678.3,81z"/>
	</g>
	<g>
		<text transform="matrix(-1 0 0 -1 458.0537 125.4548)" class="st1 st2 st3">о</text>
		<path class="st1" d="M442.9,156.4c0,12.9-9.9,23.6-23.4,23.6c-13.4,0-23.3-10.5-23.3-23.6c0-12.9,9.9-23.6,23.4-23.6
			C433,132.8,442.9,143.4,442.9,156.4z"/>
	</g>
	<line class="st0" x1="-0.3" y1="307.4" x2="841.6" y2="307.4"/>
	<g>
		<text transform="matrix(-1 0 0 -1 794.2783 49.8552)" class="st1 st2 st3">о</text>
		<path class="st1" d="M779.1,80.8c0,12.9-9.9,23.6-23.4,23.6c-13.4,0-23.3-10.5-23.3-23.6c0-12.9,9.9-23.6,23.4-23.6
			S779.1,67.8,779.1,80.8z"/>
	</g>
	<g>
		<text transform="matrix(-1 0 0 -1 357.8125 163.5251)" class="st1 st2 st3">о</text>
		<path class="st1" d="M342.7,194.5c0,12.9-9.9,23.6-23.4,23.6c-13.4,0-23.3-10.5-23.3-23.6c0-12.9,9.9-23.6,23.4-23.6
			C332.8,170.9,342.7,181.5,342.7,194.5z"/>
	</g>
	<g>
		<text transform="matrix(-1 0 0 -1 122.5107 12.4938)" class="st1 st2 st3">о</text>
		<path class="st1" d="M107.4,43.4C107.4,56.3,97.5,67,84,67c-13.4,0-23.3-10.5-23.3-23.6c0-12.9,9.9-23.6,23.4-23.6
			C97.5,19.9,107.4,30.4,107.4,43.4z"/>
	</g>
	<g>
		<text transform="matrix(-1 0 0 -1 257.4541 125.5778)" class="st1 st2 st3">о</text>
		<path class="st1" d="M242.3,156.5c0,12.9-9.9,23.6-23.4,23.6c-13.4,0-23.3-10.5-23.3-23.6c0-12.9,9.9-23.6,23.4-23.6
			C232.4,133,242.3,143.5,242.3,156.5z"/>
	</g>
</g>
<g id="Layer_10">
	<line class="st0" x1="0.3" y1="156.3" x2="842.2" y2="156.3"/>
</g>
<g id="Layer_9">
	<line class="st0" x1="0.3" y1="80.8" x2="842.2" y2="80.8"/>
</g>
<g id="Layer_7">
</g>
<g id="Layer_4">
</g>
</svg>
