<?xml version="1.0" encoding="utf-8"?>
<!-- Generator: Adobe Illustrator 21.0.2, SVG Export Plug-In . SVG Version: 6.00 Build 0)  -->
<svg version="1.1" id="Layer_1" xmlns="http://www.w3.org/2000/svg" xmlns:xlink="http://www.w3.org/1999/xlink" x="0px" y="0px"
	 width="1700px" height="2347px" viewBox="0 0 1700 2347" style="enable-background:new 0 0 1700 2347;" xml:space="preserve">
<style type="text/css">
	.st0{fill:#FFFFFF;}
	.st1{display:none;}
	.st2{display:inline;}
	.st3{font-family:'FuturaMediumC';}
	.st4{font-size:500px;}
	.st5{fill:#FFFFFF;stroke:#000000;stroke-width:4;}
</style>
<g id="Layer_9">
	<rect x="-0.4" class="st0" width="1700.8" height="2347"/>
</g>
<g id="Layer_1_1_" class="st1">
	<text transform="matrix(1 0 0 1 476.6002 662.0587)" class="st2 st3 st4">МУ</text>
	<text transform="matrix(1 0 0 1 501.5999 1162.0571)" class="st2 st3 st4">ЗЫ</text>
	<text transform="matrix(1 0 0 1 529.5414 1712.0586)" class="st2 st3 st4">КА</text>
</g>
<g id="Layer_2">
	<g>
		<g>
			<path class="st5" d="M1244.2,220.2v106h16c4.3,0,8.7-0.2,13-0.5s10.3-1.5,17.8-3.5s14-4.8,19.5-8.3s10.3-8.9,14.5-16.3
				c4.2-7.3,6.3-16,6.3-26c0-34.3-23.2-51.5-69.5-51.5L1244.2,220.2L1244.2,220.2z M1193.2,173.2h59.5c39.3,0,68.7,6.5,88,19.5
				c26.3,17.7,39.5,43.8,39.5,78.5c0,23.7-6.8,43.8-20.3,60.5s-31.4,27.5-53.8,32.5l104,142.5h-61.5l-95.5-136.5h-9v136.5h-51V173.2
				H1193.2z"/>
			<path class="st5" d="M1644.2,173.2v48h-133v79.5h129v48h-129v110h133v48h-184V173.2H1644.2z"/>
		</g>
		<g>
			<path class="st5" d="M1081.8,220.2v106h16c4.3,0,8.7-0.2,13-0.5s10.3-1.5,17.8-3.5s14-4.8,19.5-8.3s10.3-8.9,14.5-16.3
				c4.2-7.3,6.3-16,6.3-26c0-34.3-23.2-51.5-69.5-51.5L1081.8,220.2L1081.8,220.2z M1030.8,173.2h59.5c39.3,0,68.7,6.5,88,19.5
				c26.3,17.7,39.5,43.8,39.5,78.5c0,23.7-6.8,43.8-20.3,60.5s-31.4,27.5-53.8,32.5l104,142.5h-61.5l-95.5-136.5h-9v136.5h-51V173.2
				H1030.8z"/>
			<polygon class="st5" points="1481.8,173.2 1481.8,221.2 1348.8,221.2 1348.8,300.7 1477.8,300.7 1477.8,348.7 1348.8,348.7 
				1348.8,458.7 1481.8,458.7 1481.8,506.7 1297.8,506.7 1297.8,173.2 			"/>
		</g>
		<g>
			<path class="st5" d="M919.3,220.2v106h16c4.3,0,8.7-0.2,13-0.5s10.3-1.5,17.8-3.5s14-4.8,19.5-8.3s10.3-8.9,14.5-16.3
				c4.2-7.3,6.3-16,6.3-26c0-34.3-23.2-51.5-69.5-51.5L919.3,220.2L919.3,220.2z M868.3,173.2h59.5c39.3,0,68.7,6.5,88,19.5
				c26.3,17.7,39.5,43.8,39.5,78.5c0,23.7-6.8,43.8-20.3,60.5s-31.4,27.5-53.7,32.5l104,142.5h-61.5l-95.5-136.5h-9v136.5h-51
				L868.3,173.2L868.3,173.2z"/>
			<polygon class="st5" points="1319.3,173.2 1319.3,221.2 1186.3,221.2 1186.3,300.7 1315.3,300.7 1315.3,348.7 1186.3,348.7 
				1186.3,458.7 1319.3,458.7 1319.3,506.7 1135.3,506.7 1135.3,173.2 			"/>
		</g>
		<g>
			<path class="st5" d="M756.9,220.2v106h16c4.3,0,8.7-0.2,13-0.5s10.3-1.5,17.8-3.5s14-4.8,19.5-8.3s10.3-8.9,14.5-16.3
				c4.2-7.3,6.3-16,6.3-26c0-34.3-23.2-51.5-69.5-51.5L756.9,220.2L756.9,220.2z M705.9,173.2h59.5c39.3,0,68.7,6.5,88,19.5
				c26.3,17.7,39.5,43.8,39.5,78.5c0,23.7-6.8,43.8-20.3,60.5s-31.4,27.5-53.8,32.5l104,142.5h-61.5l-95.5-136.5h-9v136.5h-51
				L705.9,173.2L705.9,173.2z"/>
			<polygon class="st5" points="1156.9,173.2 1156.9,221.2 1023.9,221.2 1023.9,300.7 1152.9,300.7 1152.9,348.7 1023.9,348.7 
				1023.9,458.7 1156.9,458.7 1156.9,506.7 972.9,506.7 972.9,173.2 			"/>
		</g>
		<g>
			<path class="st5" d="M594.5,220.2v106h16c4.3,0,8.7-0.2,13-0.5s10.3-1.5,17.8-3.5s14-4.8,19.5-8.3s10.3-8.9,14.5-16.3
				c4.2-7.3,6.3-16,6.3-26c0-34.3-23.2-51.5-69.5-51.5L594.5,220.2L594.5,220.2z M543.5,173.2H603c39.3,0,68.7,6.5,88,19.5
				c26.3,17.7,39.5,43.8,39.5,78.5c0,23.7-6.8,43.8-20.3,60.5s-31.4,27.5-53.8,32.5l104,142.5h-61.5l-95.5-136.5h-9v136.5h-51
				L543.5,173.2L543.5,173.2z"/>
			<polygon class="st5" points="994.5,173.2 994.5,221.2 861.5,221.2 861.5,300.7 990.5,300.7 990.5,348.7 861.5,348.7 861.5,458.7 
				994.5,458.7 994.5,506.7 810.5,506.7 810.5,173.2 			"/>
		</g>
		<g>
			<path class="st5" d="M432,220.2v106h16c4.3,0,8.7-0.2,13-0.5s10.3-1.5,17.8-3.5s14-4.8,19.5-8.3s10.3-8.9,14.5-16.3
				c4.2-7.3,6.3-16,6.3-26c0-34.3-23.2-51.5-69.5-51.5L432,220.2L432,220.2z M381,173.2h59.5c39.3,0,68.7,6.5,88,19.5
				c26.3,17.7,39.5,43.8,39.5,78.5c0,23.7-6.8,43.8-20.3,60.5s-31.4,27.5-53.8,32.5l104,142.5h-61.5l-95.5-136.5h-9v136.5h-51
				L381,173.2L381,173.2z"/>
			<polygon class="st5" points="832,173.2 832,221.2 699,221.2 699,300.7 828,300.7 828,348.7 699,348.7 699,458.7 832,458.7 
				832,506.7 648,506.7 648,173.2 			"/>
		</g>
		<g>
			<path class="st5" d="M269.6,220.2v106h16c4.3,0,8.7-0.2,13-0.5s10.3-1.5,17.8-3.5s14-4.8,19.5-8.3s10.3-8.9,14.5-16.3
				c4.2-7.3,6.3-16,6.3-26c0-34.3-23.2-51.5-69.5-51.5L269.6,220.2L269.6,220.2z M218.6,173.2h59.5c39.3,0,68.7,6.5,88,19.5
				c26.3,17.7,39.5,43.8,39.5,78.5c0,23.7-6.8,43.8-20.3,60.5s-31.4,27.5-53.8,32.5l104,142.5H374l-95.4-136.5h-9v136.5h-51V173.2z"
				/>
			<polygon class="st5" points="669.6,173.2 669.6,221.2 536.6,221.2 536.6,300.7 665.6,300.7 665.6,348.7 536.6,348.7 536.6,458.7 
				669.6,458.7 669.6,506.7 485.6,506.7 485.6,173.2 			"/>
		</g>
		<g>
			<path class="st5" d="M107.1,220.2v106h16c4.3,0,8.7-0.2,13-0.5s10.3-1.5,17.8-3.5s14-4.8,19.5-8.3s10.3-8.9,14.5-16.3
				c4.2-7.3,6.3-16,6.3-26c0-34.3-23.2-51.5-69.5-51.5L107.1,220.2L107.1,220.2z M56.1,173.2h59.5c39.3,0,68.7,6.5,88,19.5
				c26.3,17.7,39.5,43.8,39.5,78.5c0,23.7-6.8,43.8-20.3,60.5s-31.4,27.5-53.8,32.5l104,142.5h-61.4l-95.5-136.5h-9v136.5h-51V173.2
				z"/>
			<path class="st5" d="M507.1,173.2v48h-133v79.5h129v48h-129v110h133v48h-184V173.2H507.1z"/>
		</g>
	</g>
	<g>
		<g>
			<path class="st5" d="M1200,924.3l-88.8-201.5l-35,201.5h-52l65.3-333.4l15.5-0.1l105.3,234L1316,590.9l15.7,0.1l58.6,333.3h-52
				l-34-201l-89.5,201H1200z"/>
			<path class="st5" d="M1644.2,590.8v48h-133v79.5h129v48h-129v110h133v48h-184V590.8H1644.2z"/>
		</g>
		<g>
			<polygon class="st5" points="1060.5,924.3 971.7,722.8 936.7,924.3 884.7,924.3 950,591 965.4,590.9 1070.7,824.8 1176.4,590.8 
				1192.1,590.9 1250.7,924.3 1198.7,924.3 1164.7,723.3 1075.1,924.3 			"/>
			<polygon class="st5" points="1504.7,590.8 1504.7,638.8 1371.7,638.8 1371.7,718.3 1500.7,718.3 1500.7,766.3 1371.7,766.3 
				1371.7,876.3 1504.7,876.3 1504.7,924.3 1320.7,924.3 1320.7,590.8 			"/>
		</g>
		<g>
			<polygon class="st5" points="921,924.3 832.2,722.8 797.2,924.3 745.2,924.3 810.4,591 825.9,591 931.2,824.8 1036.9,590.8 
				1052.7,590.9 1111.2,924.3 1059.2,924.3 1025.2,723.3 935.6,924.3 			"/>
			<polygon class="st5" points="1365.2,590.8 1365.2,638.8 1232.2,638.8 1232.2,718.3 1361.2,718.3 1361.2,766.3 1232.2,766.3 
				1232.2,876.3 1365.2,876.3 1365.2,924.3 1181.2,924.3 1181.2,590.8 			"/>
		</g>
		<g>
			<polygon class="st5" points="781.5,924.3 692.8,722.8 657.8,924.3 605.8,924.3 670.9,591.1 686.5,591 791.8,824.8 897.5,590.8 
				913.2,590.9 971.8,924.3 919.8,924.3 885.8,723.3 796.1,924.3 			"/>
			<polygon class="st5" points="1225.8,590.8 1225.8,638.8 1092.8,638.8 1092.8,718.3 1221.8,718.3 1221.8,766.3 1092.8,766.3 
				1092.8,876.3 1225.8,876.3 1225.8,924.3 1041.8,924.3 1041.8,590.8 			"/>
		</g>
		<g>
			<polygon class="st5" points="642,924.3 553.3,722.8 518.3,924.3 466.3,924.3 531.4,591.2 547,591.1 652.3,824.8 758,590.8 
				773.7,590.9 832.3,924.3 780.3,924.3 746.3,723.3 656.6,924.3 			"/>
			<polygon class="st5" points="1086.3,590.8 1086.3,638.8 953.3,638.8 953.3,718.3 1082.3,718.3 1082.3,766.3 953.3,766.3 
				953.3,876.3 1086.3,876.3 1086.3,924.3 902.3,924.3 902.3,590.8 			"/>
		</g>
		<g>
			<polygon class="st5" points="502.5,924.3 413.8,722.8 378.8,924.3 326.8,924.3 391.8,591.2 407.5,591.2 512.8,824.8 618.5,590.8 
				634.2,590.8 692.8,924.3 640.8,924.3 606.8,723.3 517.1,924.3 			"/>
			<polygon class="st5" points="946.8,590.8 946.8,638.8 813.8,638.8 813.8,718.3 942.8,718.3 942.8,766.3 813.8,766.3 813.8,876.3 
				946.8,876.3 946.8,924.3 762.8,924.3 762.8,590.8 			"/>
		</g>
		<g>
			<polygon class="st5" points="363,924.3 274.3,722.8 239.3,924.3 187.3,924.3 252.3,591.3 268,591.3 373.3,824.8 479,590.8 
				494.7,590.8 553.3,924.3 501.3,924.3 467.3,723.3 377.5,924.3 			"/>
			<polygon class="st5" points="807.3,590.8 807.3,638.8 674.3,638.8 674.3,718.3 803.3,718.3 803.3,766.3 674.3,766.3 674.3,876.3 
				807.3,876.3 807.3,924.3 623.3,924.3 623.3,590.8 			"/>
		</g>
		<g>
			<path class="st5" d="M223.5,924.3l-88.6-201.5l-35,201.5h-52l64.9-332.9h15.7l105.4,233.4l105.7-234h15.7l58.6,333.5h-52l-34-201
				l-89.8,201L223.5,924.3z"/>
			<path class="st5" d="M667.9,590.8v48h-133v79.5h129v48h-129v110h133v48h-184V590.8H667.9z"/>
		</g>
	</g>
	<g>
		<g>
			<path class="st5" d="M1185.8,1341.4l-88.9-201.1l-35,201.5h-52l65.2-333.3h15.9l104.9,233.8l105.8-234h15.6l58.6,333.5h-52
				l-34-201l-89.8,200.5L1185.8,1341.4z"/>
			<path class="st5" d="M1496.8,1056.4v95.5h15.5c36.3,0,54.5-16.3,54.5-49c0-31-17.5-46.5-52.5-46.5H1496.8z M1445.8,1008.4h50.5
				c36.7,0,63.3,5.8,80,17.5c25.7,17.3,38.5,42.5,38.5,75.5c0,26-9.3,46.3-28,61c18.3,5.7,32.6,15.6,42.8,29.8
				c10.2,14.2,15.3,30.1,15.3,47.8c0,34.3-11.2,60.5-33.5,78.5c-12.3,10.3-25.1,16.8-38.3,19.5c-13.2,2.7-30.1,4-50.8,4h-76.5
				V1008.4z M1496.8,1193.9v100h31c25.3,0,42.8-4.9,52.5-14.8c9.7-9.8,14.5-21.4,14.5-34.8c0-33.7-22-50.5-66-50.5h-32V1193.9z"/>
		</g>
		<g>
			<polygon class="st5" points="1048.3,1341.5 959.3,1140.4 924.3,1341.9 872.3,1341.9 937.5,1008.6 953.4,1008.6 1058.3,1242.4 
				1164.1,1008.4 1179.7,1008.4 1238.3,1341.9 1186.3,1341.9 1152.3,1140.9 1062.5,1341.5 			"/>
			<path class="st5" d="M1359.3,1056.4v95.5h15.5c36.3,0,54.5-16.3,54.5-49c0-31-17.5-46.5-52.5-46.5H1359.3z M1308.3,1008.4h50.5
				c36.7,0,63.3,5.8,80,17.5c25.7,17.3,38.5,42.5,38.5,75.5c0,26-9.3,46.3-28,61c18.3,5.7,32.6,15.6,42.8,29.8
				c10.2,14.2,15.3,30.1,15.3,47.8c0,34.3-11.2,60.5-33.5,78.5c-12.3,10.3-25.1,16.8-38.3,19.5c-13.2,2.7-30.1,4-50.8,4h-76.5
				V1008.4z M1359.3,1193.9v100h31c25.3,0,42.8-4.9,52.5-14.8c9.7-9.8,14.5-21.4,14.5-34.8c0-33.7-22-50.5-66-50.5h-32V1193.9z"/>
		</g>
		<g>
			<polygon class="st5" points="910.8,1341.6 821.8,1140.4 786.8,1341.9 734.8,1341.9 800,1008.5 815.9,1008.5 920.8,1242.4 
				1026.6,1008.4 1042.2,1008.4 1100.8,1341.9 1048.8,1341.9 1014.8,1140.9 924.9,1341.5 			"/>
			<path class="st5" d="M1221.8,1056.4v95.5h15.5c36.3,0,54.5-16.3,54.5-49c0-31-17.5-46.5-52.5-46.5H1221.8z M1170.8,1008.4h50.5
				c36.7,0,63.3,5.8,80,17.5c25.7,17.3,38.5,42.5,38.5,75.5c0,26-9.3,46.3-28,61c18.3,5.7,32.6,15.6,42.8,29.8
				c10.2,14.2,15.3,30.1,15.3,47.8c0,34.3-11.2,60.5-33.5,78.5c-12.3,10.3-25.1,16.8-38.3,19.5c-13.2,2.7-30.1,4-50.8,4h-76.5
				V1008.4z M1221.8,1193.9v100h31c25.3,0,42.8-4.9,52.5-14.8c9.7-9.8,14.5-21.4,14.5-34.8c0-33.7-22-50.5-66-50.5h-32V1193.9z"/>
		</g>
		<g>
			<polygon class="st5" points="773.3,1341.6 684.3,1140.4 649.3,1341.9 597.3,1341.9 662.4,1008.5 678.4,1008.5 783.3,1242.4 
				889.1,1008.4 904.7,1008.4 963.3,1341.9 911.3,1341.9 877.3,1140.9 787.4,1341.6 			"/>
			<path class="st5" d="M1084.3,1056.4v95.5h15.5c36.3,0,54.5-16.3,54.5-49c0-31-17.5-46.5-52.5-46.5H1084.3z M1033.3,1008.4h50.5
				c36.7,0,63.3,5.8,80,17.5c25.7,17.3,38.5,42.5,38.5,75.5c0,26-9.3,46.3-28,61c18.3,5.7,32.6,15.6,42.8,29.8
				c10.2,14.2,15.3,30.1,15.3,47.8c0,34.3-11.2,60.5-33.5,78.5c-12.3,10.3-25.1,16.8-38.3,19.5c-13.2,2.7-30.1,4-50.8,4h-76.5
				V1008.4z M1084.3,1193.9v100h31c25.3,0,42.8-4.9,52.5-14.8c9.7-9.8,14.5-21.4,14.5-34.8c0-33.7-22-50.5-66-50.5h-32V1193.9z"/>
		</g>
		<g>
			<polygon class="st5" points="635.8,1341.7 546.8,1140.4 511.8,1341.9 459.8,1341.9 524.9,1008.5 540.9,1008.5 645.8,1242.4 
				751.5,1008.4 767.1,1008.4 825.8,1341.9 773.8,1341.9 739.8,1140.9 649.8,1341.7 			"/>
			<path class="st5" d="M946.8,1056.4v95.5h15.5c36.3,0,54.5-16.3,54.5-49c0-31-17.5-46.5-52.5-46.5H946.8z M895.8,1008.4h50.5
				c36.7,0,63.3,5.8,80,17.5c25.7,17.3,38.5,42.5,38.5,75.5c0,26-9.3,46.3-28,61c18.3,5.7,32.6,15.6,42.8,29.8
				c10.2,14.2,15.3,30.1,15.3,47.8c0,34.3-11.2,60.5-33.5,78.5c-12.3,10.3-25.1,16.8-38.3,19.5s-30.1,4-50.8,4h-76.5L895.8,1008.4
				L895.8,1008.4z M946.8,1193.9v100h31c25.3,0,42.8-4.9,52.5-14.8c9.7-9.8,14.5-21.4,14.5-34.8c0-33.7-22-50.5-66-50.5h-32V1193.9z
				"/>
		</g>
		<g>
			<polygon class="st5" points="498.3,1341.7 409.3,1140.4 374.3,1341.9 322.3,1341.9 387.4,1008.4 403.4,1008.4 508.3,1242.4 
				614,1008.4 629.6,1008.4 688.3,1341.9 636.3,1341.9 602.3,1140.9 512.3,1341.7 			"/>
			<path class="st5" d="M809.2,1056.4v95.5h15.5c36.3,0,54.5-16.3,54.5-49c0-31-17.5-46.5-52.5-46.5H809.2z M758.2,1008.4h50.5
				c36.7,0,63.3,5.8,80,17.5c25.7,17.3,38.5,42.5,38.5,75.5c0,26-9.3,46.3-28,61c18.3,5.7,32.6,15.6,42.8,29.8
				c10.2,14.2,15.3,30.1,15.3,47.8c0,34.3-11.2,60.5-33.5,78.5c-12.3,10.3-25.1,16.8-38.3,19.5s-30.1,4-50.8,4h-76.5V1008.4z
				 M809.2,1193.9v100h31c25.3,0,42.8-4.9,52.5-14.8c9.7-9.8,14.5-21.4,14.5-34.8c0-33.7-22-50.5-66-50.5h-32V1193.9z"/>
		</g>
		<g>
			<polygon class="st5" points="360.8,1341.8 271.7,1140.4 236.7,1341.9 184.7,1341.9 249.9,1008.4 265.8,1008.4 370.7,1242.4 
				476.5,1008.4 492.1,1008.4 550.7,1341.9 498.7,1341.9 464.7,1140.9 374.7,1341.8 			"/>
			<path class="st5" d="M671.7,1056.4v95.5h15.5c36.3,0,54.5-16.3,54.5-49c0-31-17.5-46.5-52.5-46.5H671.7z M620.7,1008.4h50.5
				c36.7,0,63.3,5.8,80,17.5c25.7,17.3,38.5,42.5,38.5,75.5c0,26-9.3,46.3-28,61c18.3,5.7,32.6,15.6,42.8,29.8
				c10.2,14.2,15.3,30.1,15.3,47.8c0,34.3-11.2,60.5-33.5,78.5c-12.3,10.3-25.1,16.8-38.3,19.5s-30.1,4-50.8,4h-76.5V1008.4z
				 M671.7,1193.9v100h31c25.3,0,42.8-4.9,52.5-14.8c9.7-9.8,14.5-21.4,14.5-34.8c0-33.7-22-50.5-66-50.5h-32V1193.9z"/>
		</g>
		<g>
			<path class="st5" d="M223.3,1341.9l-89.1-201.5l-35,201.5h-52l65.2-333.5h15.9l104.9,234l105.7-234h15.7l58.6,333.5h-52l-34-201
				l-90,201H223.3z"/>
			<path class="st5" d="M534.2,1056.4v95.5h15.5c36.3,0,54.5-16.3,54.5-49c0-31-17.5-46.5-52.5-46.5H534.2z M483.2,1008.4h50.5
				c36.7,0,63.3,5.8,80,17.5c25.7,17.3,38.5,42.5,38.5,75.5c0,26-9.3,46.3-28,61c18.3,5.7,32.6,15.6,42.8,29.8
				c10.2,14.2,15.3,30.1,15.3,47.8c0,34.3-11.2,60.5-33.5,78.5c-12.3,10.3-25.1,16.8-38.3,19.5s-30.1,4-50.8,4h-76.5L483.2,1008.4
				L483.2,1008.4z M534.2,1193.9v100h31c25.3,0,42.8-4.9,52.5-14.8c9.7-9.8,14.5-21.4,14.5-34.8c0-33.7-22-50.5-66-50.5h-32V1193.9z
				"/>
		</g>
	</g>
	<g>
		<g>
			<path class="st5" d="M1358.9,1425.9v48h-133v79.5h129v48h-129v110h133v48h-184v-333.5H1358.9z"/>
			<path class="st5" d="M1475.9,1472.9v106h16c4.3,0,8.7-0.2,13-0.5s10.3-1.5,17.8-3.5s14-4.8,19.5-8.3s10.3-8.9,14.5-16.3
				c4.2-7.3,6.3-16,6.3-26c0-34.3-23.2-51.5-69.5-51.5h-17.6V1472.9z M1424.9,1425.9h59.5c39.3,0,68.7,6.5,88,19.5
				c26.3,17.7,39.5,43.8,39.5,78.5c0,23.7-6.8,43.8-20.3,60.5s-31.4,27.5-53.8,32.5l104,142.5h-61.5l-95.5-136.5h-9v136.5h-51
				v-333.5H1424.9z"/>
		</g>
		<g>
			<polygon class="st5" points="1199.1,1425.9 1199.1,1473.9 1066.1,1473.9 1066.1,1553.4 1195.1,1553.4 1195.1,1601.4 
				1066.1,1601.4 1066.1,1711.4 1199.1,1711.4 1199.1,1759.4 1015.1,1759.4 1015.1,1425.9 			"/>
			<path class="st5" d="M1316.1,1472.9v106h16c4.3,0,8.7-0.2,13-0.5s10.3-1.5,17.8-3.5s14-4.8,19.5-8.3s10.3-8.9,14.5-16.3
				c4.2-7.3,6.3-16,6.3-26c0-34.3-23.2-51.5-69.5-51.5h-17.6V1472.9z M1265.1,1425.9h59.5c39.3,0,68.7,6.5,88,19.5
				c26.3,17.7,39.5,43.8,39.5,78.5c0,23.7-6.8,43.8-20.3,60.5s-31.4,27.5-53.8,32.5l104,142.5h-61.4l-95.5-136.5h-9v136.5h-51
				V1425.9z"/>
		</g>
		<g>
			<polygon class="st5" points="1039.3,1425.9 1039.3,1473.9 906.3,1473.9 906.3,1553.4 1035.3,1553.4 1035.3,1601.4 906.3,1601.4 
				906.3,1711.4 1039.3,1711.4 1039.3,1759.4 855.3,1759.4 855.3,1425.9 			"/>
			<path class="st5" d="M1156.3,1472.9v106h16c4.3,0,8.7-0.2,13-0.5s10.3-1.5,17.8-3.5s14-4.8,19.5-8.3s10.3-8.9,14.5-16.3
				c4.2-7.3,6.3-16,6.3-26c0-34.3-23.2-51.5-69.5-51.5h-17.6V1472.9z M1105.3,1425.9h59.5c39.3,0,68.7,6.5,88,19.5
				c26.3,17.7,39.5,43.8,39.5,78.5c0,23.7-6.8,43.8-20.3,60.5s-31.4,27.5-53.8,32.5l104,142.5h-61.5l-95.5-136.5h-9v136.5h-51
				v-333.5H1105.3z"/>
		</g>
		<g>
			<polygon class="st5" points="879.4,1425.9 879.4,1473.9 746.4,1473.9 746.4,1553.4 875.4,1553.4 875.4,1601.4 746.4,1601.4 
				746.4,1711.4 879.4,1711.4 879.4,1759.4 695.4,1759.4 695.4,1425.9 			"/>
			<path class="st5" d="M996.4,1472.9v106h16c4.3,0,8.7-0.2,13-0.5s10.3-1.5,17.8-3.5s14-4.8,19.5-8.3s10.3-8.9,14.5-16.3
				c4.2-7.3,6.3-16,6.3-26c0-34.3-23.2-51.5-69.5-51.5h-17.6V1472.9z M945.4,1425.9h59.5c39.3,0,68.7,6.5,88,19.5
				c26.3,17.7,39.5,43.8,39.5,78.5c0,23.7-6.8,43.8-20.3,60.5s-31.4,27.5-53.8,32.5l104,142.5h-61.5l-95.5-136.5h-9v136.5h-51
				v-333.5H945.4z"/>
		</g>
		<g>
			<polygon class="st5" points="719.6,1425.9 719.6,1473.9 586.6,1473.9 586.6,1553.4 715.6,1553.4 715.6,1601.4 586.6,1601.4 
				586.6,1711.4 719.6,1711.4 719.6,1759.4 535.6,1759.4 535.6,1425.9 			"/>
			<path class="st5" d="M836.6,1472.9v106h16c4.3,0,8.7-0.2,13-0.5s10.3-1.5,17.8-3.5s14-4.8,19.5-8.3s10.3-8.9,14.5-16.3
				c4.2-7.3,6.3-16,6.3-26c0-34.3-23.2-51.5-69.5-51.5h-17.6V1472.9z M785.6,1425.9h59.5c39.3,0,68.7,6.5,88,19.5
				c26.3,17.7,39.5,43.8,39.5,78.5c0,23.7-6.8,43.8-20.3,60.5s-31.4,27.5-53.8,32.5l104,142.5H941l-95.4-136.5h-9v136.5h-51V1425.9z
				"/>
		</g>
		<g>
			<polygon class="st5" points="559.8,1425.9 559.8,1473.9 426.8,1473.9 426.8,1553.4 555.8,1553.4 555.8,1601.4 426.8,1601.4 
				426.8,1711.4 559.8,1711.4 559.8,1759.4 375.8,1759.4 375.8,1425.9 			"/>
			<path class="st5" d="M676.8,1472.9v106h16c4.3,0,8.7-0.2,13-0.5s10.3-1.5,17.8-3.5s14-4.8,19.5-8.3s10.3-8.9,14.5-16.3
				c4.2-7.3,6.3-16,6.3-26c0-34.3-23.2-51.5-69.5-51.5h-17.6V1472.9z M625.8,1425.9h59.5c39.3,0,68.7,6.5,88,19.5
				c26.3,17.7,39.5,43.8,39.5,78.5c0,23.7-6.8,43.8-20.3,60.5s-31.4,27.5-53.8,32.5l104,142.5h-61.5l-95.5-136.5h-9v136.5h-51
				L625.8,1425.9L625.8,1425.9z"/>
		</g>
		<g>
			<polygon class="st5" points="399.9,1425.9 399.9,1473.9 266.9,1473.9 266.9,1553.4 395.9,1553.4 395.9,1601.4 266.9,1601.4 
				266.9,1711.4 399.9,1711.4 399.9,1759.4 215.9,1759.4 215.9,1425.9 			"/>
			<path class="st5" d="M516.9,1472.9v106h16c4.3,0,8.7-0.2,13-0.5s10.3-1.5,17.8-3.5s14-4.8,19.5-8.3s10.3-8.9,14.5-16.3
				c4.2-7.3,6.3-16,6.3-26c0-34.3-23.2-51.5-69.5-51.5h-17.6V1472.9z M465.9,1425.9h59.5c39.3,0,68.7,6.5,88,19.5
				c26.3,17.7,39.5,43.8,39.5,78.5c0,23.7-6.8,43.8-20.3,60.5s-31.4,27.5-53.8,32.5l104,142.5h-61.5l-95.5-136.5h-9v136.5h-51
				L465.9,1425.9L465.9,1425.9z"/>
		</g>
		<g>
			<path class="st5" d="M240.1,1425.9v48h-133v79.5h129v48h-129v110h133v48h-184v-333.5H240.1z"/>
			<path class="st5" d="M357.1,1472.9v106h16c4.3,0,8.7-0.2,13-0.5s10.3-1.5,17.8-3.5s14-4.8,19.5-8.3s10.3-8.9,14.5-16.3
				c4.2-7.3,6.3-16,6.3-26c0-34.3-23.2-51.5-69.5-51.5h-17.6V1472.9z M306.1,1425.9h59.5c39.3,0,68.7,6.5,88,19.5
				c26.3,17.7,39.5,43.8,39.5,78.5c0,23.7-6.8,43.8-20.3,60.5s-31.4,27.5-53.8,32.5l104,142.5h-61.4l-95.5-136.5h-9v136.5h-51
				V1425.9z"/>
		</g>
	</g>
	<g>
		<g>
			<path class="st5" d="M1200,2177l-88.8-201.5l-35,201.5h-52l65.3-333.4l15.5-0.1l105.3,234l105.7-233.9l15.7,0.1l58.6,333.3h-52
				l-34-201l-89.5,201H1200z"/>
			<path class="st5" d="M1644.2,1843.5v48h-133v79.5h129v48h-129v110h133v48h-184v-333.5H1644.2z"/>
		</g>
		<g>
			<polygon class="st5" points="1060.5,2177 971.7,1975.5 936.7,2177 884.7,2177 950,1843.7 965.4,1843.6 1070.7,2077.5 
				1176.4,1843.6 1192.1,1843.7 1250.7,2177 1198.7,2177 1164.7,1976 1075.1,2177 			"/>
			<polygon class="st5" points="1504.7,1843.5 1504.7,1891.5 1371.7,1891.5 1371.7,1971 1500.7,1971 1500.7,2019 1371.7,2019 
				1371.7,2129 1504.7,2129 1504.7,2177 1320.7,2177 1320.7,1843.5 			"/>
		</g>
		<g>
			<polygon class="st5" points="921,2177 832.2,1975.5 797.2,2177 745.2,2177 810.4,1843.8 825.9,1843.7 931.2,2077.5 
				1036.9,1843.6 1052.7,1843.6 1111.2,2177 1059.2,2177 1025.2,1976 935.6,2177 			"/>
			<polygon class="st5" points="1365.2,1843.5 1365.2,1891.5 1232.2,1891.5 1232.2,1971 1361.2,1971 1361.2,2019 1232.2,2019 
				1232.2,2129 1365.2,2129 1365.2,2177 1181.2,2177 1181.2,1843.5 			"/>
		</g>
		<g>
			<polygon class="st5" points="781.5,2177 692.8,1975.5 657.8,2177 605.8,2177 670.9,1843.8 686.5,1843.8 791.8,2077.5 
				897.5,1843.5 913.2,1843.6 971.8,2177 919.8,2177 885.8,1976 796.1,2177 			"/>
			<polygon class="st5" points="1225.8,1843.5 1225.8,1891.5 1092.8,1891.5 1092.8,1971 1221.8,1971 1221.8,2019 1092.8,2019 
				1092.8,2129 1225.8,2129 1225.8,2177 1041.8,2177 1041.8,1843.5 			"/>
		</g>
		<g>
			<polygon class="st5" points="642,2177 553.3,1975.5 518.3,2177 466.3,2177 531.4,1843.9 547,1843.8 652.3,2077.5 758,1843.5 
				773.7,1843.6 832.3,2177 780.3,2177 746.3,1976 656.6,2177 			"/>
			<polygon class="st5" points="1086.3,1843.5 1086.3,1891.5 953.3,1891.5 953.3,1971 1082.3,1971 1082.3,2019 953.3,2019 
				953.3,2129 1086.3,2129 1086.3,2177 902.3,2177 902.3,1843.5 			"/>
		</g>
		<g>
			<polygon class="st5" points="502.5,2177 413.8,1975.5 378.8,2177 326.8,2177 391.8,1844 407.5,1843.9 512.8,2077.5 618.5,1843.5 
				634.2,1843.6 692.8,2177 640.8,2177 606.8,1976 517.1,2177 			"/>
			<polygon class="st5" points="946.8,1843.5 946.8,1891.5 813.8,1891.5 813.8,1971 942.8,1971 942.8,2019 813.8,2019 813.8,2129 
				946.8,2129 946.8,2177 762.8,2177 762.8,1843.5 			"/>
		</g>
		<g>
			<polygon class="st5" points="363,2177 274.3,1975.5 239.3,2177 187.3,2177 252.3,1844 268,1844 373.3,2077.5 479,1843.5 
				494.7,1843.5 553.3,2177 501.3,2177 467.3,1976 377.5,2177 			"/>
			<polygon class="st5" points="807.3,1843.5 807.3,1891.5 674.3,1891.5 674.3,1971 803.3,1971 803.3,2019 674.3,2019 674.3,2129 
				807.3,2129 807.3,2177 623.3,2177 623.3,1843.5 			"/>
		</g>
		<g>
			<path class="st5" d="M223.5,2177l-88.6-201.5l-35,201.5h-52l64.9-332.9h15.7l105.4,233.4l105.7-234h15.7l58.6,333.5h-52l-34-201
				l-89.8,201H223.5z"/>
			<path class="st5" d="M667.9,1843.5v48h-133v79.5h129v48h-129v110h133v48h-184v-333.5H667.9z"/>
		</g>
	</g>
</g>
<g id="Layer_7">
</g>
<g id="Layer_3">
	<g>
		<path d="M56.1,173.2h59.5c39.3,0,68.7,6.5,88,19.5c26.3,17.7,39.5,43.8,39.5,78.5c0,23.7-6.8,43.8-20.3,60.5s-31.4,27.5-53.8,32.5
			l104,142.5h-61.4l-95.5-136.5h-9v136.5h-51V173.2z M107.1,220.2v106h16c4.3,0,8.7-0.2,13-0.5s10.3-1.5,17.8-3.5s14-4.8,19.5-8.3
			s10.3-8.9,14.5-16.3c4.2-7.3,6.3-16,6.3-26c0-34.3-23.2-51.5-69.5-51.5L107.1,220.2L107.1,220.2z"/>
		<path d="M507.1,173.2v48h-133v79.5h129v48h-129v110h133v48h-184V173.2H507.1z"/>
	</g>
	<g>
		<path d="M240.9,1427v48h-133v79.5h129v48h-129v110h133v48h-184V1427H240.9z"/>
		<path d="M306.9,1427h59.5c39.3,0,68.7,6.5,88,19.5c26.3,17.7,39.5,43.8,39.5,78.5c0,23.7-6.8,43.8-20.3,60.5s-31.4,27.5-53.8,32.5
			l104,142.5h-61.5L366.9,1624h-9v136.5h-51V1427z M357.9,1474v106h16c4.3,0,8.7-0.2,13-0.5s10.3-1.5,17.8-3.5s14-4.8,19.5-8.3
			s10.3-8.9,14.5-16.3c4.2-7.3,6.3-16,6.3-26c0-34.3-23.2-51.5-69.5-51.5h-17.6V1474z"/>
	</g>
</g>
<g id="Layer_8">
	<polyline points="339.6,590.8 355.3,590.8 413.9,924.3 361.9,924.3 327.9,723.3 238,924.3 223.5,924.3 134.9,722.8 99.9,924.3 
		47.9,924.3 112.7,591.4 128.5,591.4 233.9,824.8 	"/>
	<polyline points="339.6,1007.6 355.3,1007.6 413.9,1341.1 361.9,1341.1 327.9,1140.1 238,1341.1 223.5,1341.1 134.9,1139.6 
		99.9,1341.1 47.9,1341.1 112.7,1008.2 128.5,1008.2 233.9,1241.6 	"/>
	<polyline points="340.6,1845.6 356.3,1845.6 414.9,2179.1 362.9,2179.1 328.9,1978.1 239.1,2178.8 224.4,2178.8 135.9,1977.6 
		100.9,2179.1 48.9,2179.1 113.8,1846.2 129.5,1846.2 234.9,2079.6 	"/>
	<g>
		<path d="M669.5,1844.1v48h-133v79.5h129v48h-129v110h133v48h-184v-333.5L669.5,1844.1L669.5,1844.1z"/>
	</g>
	<g>
		<path d="M667.9,590.8v48h-133v79.5h129v48h-129v110h133v48h-184V590.8H667.9z"/>
	</g>
	<g>
		<path d="M483.2,1010.3h50.5c36.7,0,63.3,5.8,80,17.5c25.7,17.3,38.5,42.5,38.5,75.5c0,26-9.3,46.3-28,61
			c18.3,5.7,32.6,15.6,42.8,29.8c10.2,14.2,15.3,30.1,15.3,47.8c0,34.3-11.2,60.5-33.5,78.5c-12.3,10.3-25.1,16.8-38.3,19.5
			s-30.1,4-50.8,4h-76.5L483.2,1010.3L483.2,1010.3z M534.2,1058.3v95.5h15.5c36.3,0,54.5-16.3,54.5-49c0-31-17.5-46.5-52.5-46.5
			H534.2z M534.2,1195.8v100h31c25.3,0,42.8-4.9,52.5-14.8c9.7-9.8,14.5-21.4,14.5-34.8c0-33.7-22-50.5-66-50.5h-32V1195.8z"/>
	</g>
</g>
<g id="Layer_6">
</g>
<g id="Layer_4">
</g>
<g id="Layer_5">
</g>
</svg>
