<?xml version="1.0" encoding="utf-8"?>
<!-- Generator: Adobe Illustrator 21.0.2, SVG Export Plug-In . SVG Version: 6.00 Build 0)  -->
<svg version="1.1" xmlns="http://www.w3.org/2000/svg" xmlns:xlink="http://www.w3.org/1999/xlink" x="0px" y="0px"
	 viewBox="0 0 1700.8 2347" style="enable-background:new 0 0 1700.8 2347;" xml:space="preserve">
<style type="text/css">
	.st0{fill:#FFFFFF;}
	.st1{display:none;}
	.st2{display:inline;}
	.st3{font-family:'FuturaMediumC';}
	.st4{font-size:500px;}
	.st5{fill:#FFFFFF;stroke:#000000;stroke-width:4;}
</style>
<g id="Layer_9">
	<rect class="st0" width="1700.8" height="2347"/>
</g>
<g id="Layer_1" class="st1">
	<text transform="matrix(1 0 0 1 477.0002 662.0587)" class="st2 st3 st4">МУ</text>
	<text transform="matrix(1 0 0 1 501.9999 1162.0571)" class="st2 st3 st4">ЗЫ</text>
	<text transform="matrix(1 0 0 1 529.9414 1712.0586)" class="st2 st3 st4">КА</text>
</g>
<g id="Layer_2">
	<g>
		<g>
			<path class="st5" d="M1244.6,220.2v106h16c4.3,0,8.7-0.2,13-0.5c4.3-0.3,10.3-1.5,17.8-3.5s14-4.8,19.5-8.3s10.3-8.9,14.5-16.3
				c4.2-7.3,6.3-16,6.3-26c0-34.3-23.2-51.5-69.5-51.5H1244.6z M1193.6,173.2h59.5c39.3,0,68.7,6.5,88,19.5
				c26.3,17.7,39.5,43.8,39.5,78.5c0,23.7-6.8,43.8-20.3,60.5c-13.5,16.7-31.4,27.5-53.8,32.5l104,142.5h-61.5l-95.5-136.5h-9v136.5
				h-51V173.2z"/>
			<path class="st5" d="M1644.6,173.2v48h-133v79.5h129v48h-129v110h133v48h-184V173.2H1644.6z"/>
		</g>
		<g>
			<path class="st5" d="M1082.2,220.2v106h16c4.3,0,8.7-0.2,13-0.5c4.3-0.3,10.3-1.5,17.8-3.5s14-4.8,19.5-8.3s10.3-8.9,14.5-16.3
				c4.2-7.3,6.3-16,6.3-26c0-34.3-23.2-51.5-69.5-51.5H1082.2z M1031.2,173.2h59.5c39.3,0,68.7,6.5,88,19.5
				c26.3,17.7,39.5,43.8,39.5,78.5c0,23.7-6.8,43.8-20.3,60.5c-13.5,16.7-31.4,27.5-53.8,32.5l104,142.5h-61.5l-95.5-136.5h-9v136.5
				h-51V173.2z"/>
			<polygon class="st5" points="1482.2,173.2 1482.2,221.2 1349.2,221.2 1349.2,300.7 1478.2,300.7 1478.2,348.7 1349.2,348.7 
				1349.2,458.7 1482.2,458.7 1482.2,506.7 1298.2,506.7 1298.2,173.2 			"/>
		</g>
		<g>
			<path class="st5" d="M919.7,220.2v106h16c4.3,0,8.7-0.2,13-0.5c4.3-0.3,10.3-1.5,17.8-3.5s14-4.8,19.5-8.3s10.3-8.9,14.5-16.3
				c4.2-7.3,6.3-16,6.3-26c0-34.3-23.2-51.5-69.5-51.5H919.7z M868.7,173.2h59.5c39.3,0,68.7,6.5,88,19.5
				c26.3,17.7,39.5,43.8,39.5,78.5c0,23.7-6.8,43.8-20.3,60.5c-13.5,16.7-31.4,27.5-53.7,32.5l104,142.5h-61.5l-95.5-136.5h-9v136.5
				h-51V173.2z"/>
			<polygon class="st5" points="1319.7,173.2 1319.7,221.2 1186.7,221.2 1186.7,300.7 1315.7,300.7 1315.7,348.7 1186.7,348.7 
				1186.7,458.7 1319.7,458.7 1319.7,506.7 1135.7,506.7 1135.7,173.2 			"/>
		</g>
		<g>
			<path class="st5" d="M757.3,220.2v106h16c4.3,0,8.7-0.2,13-0.5c4.3-0.3,10.3-1.5,17.8-3.5s14-4.8,19.5-8.3s10.3-8.9,14.5-16.3
				c4.2-7.3,6.3-16,6.3-26c0-34.3-23.2-51.5-69.5-51.5H757.3z M706.3,173.2h59.5c39.3,0,68.7,6.5,88,19.5
				c26.3,17.7,39.5,43.8,39.5,78.5c0,23.7-6.8,43.8-20.3,60.5c-13.5,16.7-31.4,27.5-53.8,32.5l104,142.5h-61.5l-95.5-136.5h-9v136.5
				h-51V173.2z"/>
			<polygon class="st5" points="1157.3,173.2 1157.3,221.2 1024.3,221.2 1024.3,300.7 1153.3,300.7 1153.3,348.7 1024.3,348.7 
				1024.3,458.7 1157.3,458.7 1157.3,506.7 973.3,506.7 973.3,173.2 			"/>
		</g>
		<g>
			<path class="st5" d="M594.9,220.2v106h16c4.3,0,8.7-0.2,13-0.5c4.3-0.3,10.3-1.5,17.8-3.5s14-4.8,19.5-8.3s10.3-8.9,14.5-16.3
				c4.2-7.3,6.3-16,6.3-26c0-34.3-23.2-51.5-69.5-51.5H594.9z M543.9,173.2h59.5c39.3,0,68.7,6.5,88,19.5
				c26.3,17.7,39.5,43.8,39.5,78.5c0,23.7-6.8,43.8-20.3,60.5c-13.5,16.7-31.4,27.5-53.8,32.5l104,142.5h-61.5l-95.5-136.5h-9v136.5
				h-51V173.2z"/>
			<polygon class="st5" points="994.9,173.2 994.9,221.2 861.9,221.2 861.9,300.7 990.9,300.7 990.9,348.7 861.9,348.7 861.9,458.7 
				994.9,458.7 994.9,506.7 810.9,506.7 810.9,173.2 			"/>
		</g>
		<g>
			<path class="st5" d="M432.4,220.2v106h16c4.3,0,8.7-0.2,13-0.5c4.3-0.3,10.3-1.5,17.8-3.5s14-4.8,19.5-8.3s10.3-8.9,14.5-16.3
				c4.2-7.3,6.3-16,6.3-26c0-34.3-23.2-51.5-69.5-51.5H432.4z M381.4,173.2h59.5c39.3,0,68.7,6.5,88,19.5
				c26.3,17.7,39.5,43.8,39.5,78.5c0,23.7-6.8,43.8-20.3,60.5c-13.5,16.7-31.4,27.5-53.8,32.5l104,142.5h-61.5l-95.5-136.5h-9v136.5
				h-51V173.2z"/>
			<polygon class="st5" points="832.4,173.2 832.4,221.2 699.4,221.2 699.4,300.7 828.4,300.7 828.4,348.7 699.4,348.7 699.4,458.7 
				832.4,458.7 832.4,506.7 648.4,506.7 648.4,173.2 			"/>
		</g>
		<g>
			<path class="st5" d="M270,220.2v106h16c4.3,0,8.7-0.2,13-0.5c4.3-0.3,10.3-1.5,17.8-3.5s14-4.8,19.5-8.3s10.3-8.9,14.5-16.3
				c4.2-7.3,6.3-16,6.3-26c0-34.3-23.2-51.5-69.5-51.5H270z M219,173.2h59.5c39.3,0,68.7,6.5,88,19.5c26.3,17.7,39.5,43.8,39.5,78.5
				c0,23.7-6.8,43.8-20.3,60.5c-13.5,16.7-31.4,27.5-53.8,32.5l104,142.5h-61.5L279,370.2h-9v136.5h-51V173.2z"/>
			<polygon class="st5" points="670,173.2 670,221.2 537,221.2 537,300.7 666,300.7 666,348.7 537,348.7 537,458.7 670,458.7 
				670,506.7 486,506.7 486,173.2 			"/>
		</g>
		<g>
			<path class="st5" d="M107.5,220.2v106h16c4.3,0,8.7-0.2,13-0.5c4.3-0.3,10.3-1.5,17.8-3.5s14-4.8,19.5-8.3s10.3-8.9,14.5-16.3
				c4.2-7.3,6.3-16,6.3-26c0-34.3-23.2-51.5-69.5-51.5H107.5z M56.5,173.2H116c39.3,0,68.7,6.5,88,19.5
				c26.3,17.7,39.5,43.8,39.5,78.5c0,23.7-6.8,43.8-20.3,60.5c-13.5,16.7-31.4,27.5-53.8,32.5l104,142.5H212l-95.5-136.5h-9v136.5
				h-51V173.2z"/>
			<path class="st5" d="M507.5,173.2v48h-133v79.5h129v48h-129v110h133v48h-184V173.2H507.5z"/>
		</g>
	</g>
	<g>
		<g>
			<path class="st5" d="M1200.4,924.3l-88.8-201.5l-35,201.5h-52l65.3-333.4l15.5-0.1l105.3,234l105.7-233.9l15.7,0.1l58.6,333.3
				h-52l-34-201l-89.5,201H1200.4z"/>
			<path class="st5" d="M1644.6,590.8v48h-133v79.5h129v48h-129v110h133v48h-184V590.8H1644.6z"/>
		</g>
		<g>
			<polygon class="st5" points="1060.9,924.3 972.1,722.8 937.1,924.3 885.1,924.3 950.4,591 965.8,590.9 1071.1,824.8 
				1176.8,590.8 1192.5,590.9 1251.1,924.3 1199.1,924.3 1165.1,723.3 1075.5,924.3 			"/>
			<polygon class="st5" points="1505.1,590.8 1505.1,638.8 1372.1,638.8 1372.1,718.3 1501.1,718.3 1501.1,766.3 1372.1,766.3 
				1372.1,876.3 1505.1,876.3 1505.1,924.3 1321.1,924.3 1321.1,590.8 			"/>
		</g>
		<g>
			<polygon class="st5" points="921.4,924.3 832.6,722.8 797.6,924.3 745.6,924.3 810.8,591 826.3,591 931.6,824.8 1037.3,590.8 
				1053.1,590.9 1111.6,924.3 1059.6,924.3 1025.6,723.3 936,924.3 			"/>
			<polygon class="st5" points="1365.6,590.8 1365.6,638.8 1232.6,638.8 1232.6,718.3 1361.6,718.3 1361.6,766.3 1232.6,766.3 
				1232.6,876.3 1365.6,876.3 1365.6,924.3 1181.6,924.3 1181.6,590.8 			"/>
		</g>
		<g>
			<polygon class="st5" points="781.9,924.3 693.2,722.8 658.2,924.3 606.2,924.3 671.3,591.1 686.9,591 792.2,824.8 897.9,590.8 
				913.6,590.9 972.2,924.3 920.2,924.3 886.2,723.3 796.5,924.3 			"/>
			<polygon class="st5" points="1226.2,590.8 1226.2,638.8 1093.2,638.8 1093.2,718.3 1222.2,718.3 1222.2,766.3 1093.2,766.3 
				1093.2,876.3 1226.2,876.3 1226.2,924.3 1042.2,924.3 1042.2,590.8 			"/>
		</g>
		<g>
			<polygon class="st5" points="642.4,924.3 553.7,722.8 518.7,924.3 466.7,924.3 531.8,591.2 547.4,591.1 652.7,824.8 758.4,590.8 
				774.1,590.9 832.7,924.3 780.7,924.3 746.7,723.3 657,924.3 			"/>
			<polygon class="st5" points="1086.7,590.8 1086.7,638.8 953.7,638.8 953.7,718.3 1082.7,718.3 1082.7,766.3 953.7,766.3 
				953.7,876.3 1086.7,876.3 1086.7,924.3 902.7,924.3 902.7,590.8 			"/>
		</g>
		<g>
			<polygon class="st5" points="502.9,924.3 414.2,722.8 379.2,924.3 327.2,924.3 392.2,591.2 407.9,591.2 513.2,824.8 618.9,590.8 
				634.6,590.8 693.2,924.3 641.2,924.3 607.2,723.3 517.5,924.3 			"/>
			<polygon class="st5" points="947.2,590.8 947.2,638.8 814.2,638.8 814.2,718.3 943.2,718.3 943.2,766.3 814.2,766.3 814.2,876.3 
				947.2,876.3 947.2,924.3 763.2,924.3 763.2,590.8 			"/>
		</g>
		<g>
			<polygon class="st5" points="363.4,924.3 274.7,722.8 239.7,924.3 187.7,924.3 252.7,591.3 268.4,591.3 373.7,824.8 479.4,590.8 
				495.1,590.8 553.7,924.3 501.7,924.3 467.7,723.3 377.9,924.3 			"/>
			<polygon class="st5" points="807.7,590.8 807.7,638.8 674.7,638.8 674.7,718.3 803.7,718.3 803.7,766.3 674.7,766.3 674.7,876.3 
				807.7,876.3 807.7,924.3 623.7,924.3 623.7,590.8 			"/>
		</g>
		<g>
			<path class="st5" d="M223.9,924.3l-88.6-201.5l-35,201.5h-52l64.9-332.9h15.7l105.4,233.4l105.7-234l15.7,0l58.6,333.5h-52
				l-34-201l-89.8,201L223.9,924.3z"/>
			<path class="st5" d="M668.3,590.8v48h-133v79.5h129v48h-129v110h133v48h-184V590.8H668.3z"/>
		</g>
	</g>
	<g>
		<g>
			<path class="st5" d="M1186.2,1341.4l-88.9-201.1l-35,201.5h-52l65.2-333.3h15.9l104.9,233.8l105.8-234h15.6l58.6,333.5h-52
				l-34-201l-89.8,200.5L1186.2,1341.4z"/>
			<path class="st5" d="M1497.2,1056.4v95.5h15.5c36.3,0,54.5-16.3,54.5-49c0-31-17.5-46.5-52.5-46.5H1497.2z M1446.2,1008.4h50.5
				c36.7,0,63.3,5.8,80,17.5c25.7,17.3,38.5,42.5,38.5,75.5c0,26-9.3,46.3-28,61c18.3,5.7,32.6,15.6,42.8,29.8
				c10.2,14.2,15.3,30.1,15.3,47.8c0,34.3-11.2,60.5-33.5,78.5c-12.3,10.3-25.1,16.8-38.3,19.5c-13.2,2.7-30.1,4-50.8,4h-76.5
				V1008.4z M1497.2,1193.9v100h31c25.3,0,42.8-4.9,52.5-14.8c9.7-9.8,14.5-21.4,14.5-34.8c0-33.7-22-50.5-66-50.5H1497.2z"/>
		</g>
		<g>
			<polygon class="st5" points="1048.7,1341.5 959.7,1140.4 924.7,1341.9 872.7,1341.9 937.9,1008.6 953.8,1008.6 1058.7,1242.4 
				1164.5,1008.4 1180.1,1008.4 1238.7,1341.9 1186.7,1341.9 1152.7,1140.9 1062.9,1341.5 			"/>
			<path class="st5" d="M1359.7,1056.4v95.5h15.5c36.3,0,54.5-16.3,54.5-49c0-31-17.5-46.5-52.5-46.5H1359.7z M1308.7,1008.4h50.5
				c36.7,0,63.3,5.8,80,17.5c25.7,17.3,38.5,42.5,38.5,75.5c0,26-9.3,46.3-28,61c18.3,5.7,32.6,15.6,42.8,29.8
				c10.2,14.2,15.3,30.1,15.3,47.8c0,34.3-11.2,60.5-33.5,78.5c-12.3,10.3-25.1,16.8-38.3,19.5c-13.2,2.7-30.1,4-50.8,4h-76.5
				V1008.4z M1359.7,1193.9v100h31c25.3,0,42.8-4.9,52.5-14.8c9.7-9.8,14.5-21.4,14.5-34.8c0-33.7-22-50.5-66-50.5H1359.7z"/>
		</g>
		<g>
			<polygon class="st5" points="911.2,1341.6 822.2,1140.4 787.2,1341.9 735.2,1341.9 800.4,1008.5 816.3,1008.5 921.2,1242.4 
				1027,1008.4 1042.6,1008.4 1101.2,1341.9 1049.2,1341.9 1015.2,1140.9 925.3,1341.5 			"/>
			<path class="st5" d="M1222.2,1056.4v95.5h15.5c36.3,0,54.5-16.3,54.5-49c0-31-17.5-46.5-52.5-46.5H1222.2z M1171.2,1008.4h50.5
				c36.7,0,63.3,5.8,80,17.5c25.7,17.3,38.5,42.5,38.5,75.5c0,26-9.3,46.3-28,61c18.3,5.7,32.6,15.6,42.8,29.8
				c10.2,14.2,15.3,30.1,15.3,47.8c0,34.3-11.2,60.5-33.5,78.5c-12.3,10.3-25.1,16.8-38.3,19.5c-13.2,2.7-30.1,4-50.8,4h-76.5
				V1008.4z M1222.2,1193.9v100h31c25.3,0,42.8-4.9,52.5-14.8c9.7-9.8,14.5-21.4,14.5-34.8c0-33.7-22-50.5-66-50.5H1222.2z"/>
		</g>
		<g>
			<polygon class="st5" points="773.7,1341.6 684.7,1140.4 649.7,1341.9 597.7,1341.9 662.8,1008.5 678.8,1008.5 783.7,1242.4 
				889.5,1008.4 905.1,1008.4 963.7,1341.9 911.7,1341.9 877.7,1140.9 787.8,1341.6 			"/>
			<path class="st5" d="M1084.7,1056.4v95.5h15.5c36.3,0,54.5-16.3,54.5-49c0-31-17.5-46.5-52.5-46.5H1084.7z M1033.7,1008.4h50.5
				c36.7,0,63.3,5.8,80,17.5c25.7,17.3,38.5,42.5,38.5,75.5c0,26-9.3,46.3-28,61c18.3,5.7,32.6,15.6,42.8,29.8
				c10.2,14.2,15.3,30.1,15.3,47.8c0,34.3-11.2,60.5-33.5,78.5c-12.3,10.3-25.1,16.8-38.3,19.5c-13.2,2.7-30.1,4-50.8,4h-76.5
				V1008.4z M1084.7,1193.9v100h31c25.3,0,42.8-4.9,52.5-14.8c9.7-9.8,14.5-21.4,14.5-34.8c0-33.7-22-50.5-66-50.5H1084.7z"/>
		</g>
		<g>
			<polygon class="st5" points="636.2,1341.7 547.2,1140.4 512.2,1341.9 460.2,1341.9 525.3,1008.5 541.3,1008.5 646.2,1242.4 
				751.9,1008.4 767.5,1008.4 826.2,1341.9 774.2,1341.9 740.2,1140.9 650.2,1341.7 			"/>
			<path class="st5" d="M947.2,1056.4v95.5h15.5c36.3,0,54.5-16.3,54.5-49c0-31-17.5-46.5-52.5-46.5H947.2z M896.2,1008.4h50.5
				c36.7,0,63.3,5.8,80,17.5c25.7,17.3,38.5,42.5,38.5,75.5c0,26-9.3,46.3-28,61c18.3,5.7,32.6,15.6,42.8,29.8
				c10.2,14.2,15.3,30.1,15.3,47.8c0,34.3-11.2,60.5-33.5,78.5c-12.3,10.3-25.1,16.8-38.3,19.5c-13.2,2.7-30.1,4-50.8,4h-76.5
				V1008.4z M947.2,1193.9v100h31c25.3,0,42.8-4.9,52.5-14.8c9.7-9.8,14.5-21.4,14.5-34.8c0-33.7-22-50.5-66-50.5H947.2z"/>
		</g>
		<g>
			<polygon class="st5" points="498.7,1341.7 409.7,1140.4 374.7,1341.9 322.7,1341.9 387.8,1008.4 403.8,1008.4 508.7,1242.4 
				614.4,1008.4 630,1008.4 688.7,1341.9 636.7,1341.9 602.7,1140.9 512.7,1341.7 			"/>
			<path class="st5" d="M809.6,1056.4v95.5h15.5c36.3,0,54.5-16.3,54.5-49c0-31-17.5-46.5-52.5-46.5H809.6z M758.6,1008.4h50.5
				c36.7,0,63.3,5.8,80,17.5c25.7,17.3,38.5,42.5,38.5,75.5c0,26-9.3,46.3-28,61c18.3,5.7,32.6,15.6,42.8,29.8
				c10.2,14.2,15.3,30.1,15.3,47.8c0,34.3-11.2,60.5-33.5,78.5c-12.3,10.3-25.1,16.8-38.3,19.5c-13.2,2.7-30.1,4-50.8,4h-76.5
				V1008.4z M809.6,1193.9v100h31c25.3,0,42.8-4.9,52.5-14.8c9.7-9.8,14.5-21.4,14.5-34.8c0-33.7-22-50.5-66-50.5H809.6z"/>
		</g>
		<g>
			<polygon class="st5" points="361.2,1341.8 272.1,1140.4 237.1,1341.9 185.1,1341.9 250.3,1008.4 266.2,1008.4 371.1,1242.4 
				476.9,1008.4 492.5,1008.4 551.1,1341.9 499.1,1341.9 465.1,1140.9 375.1,1341.8 			"/>
			<path class="st5" d="M672.1,1056.4v95.5h15.5c36.3,0,54.5-16.3,54.5-49c0-31-17.5-46.5-52.5-46.5H672.1z M621.1,1008.4h50.5
				c36.7,0,63.3,5.8,80,17.5c25.7,17.3,38.5,42.5,38.5,75.5c0,26-9.3,46.3-28,61c18.3,5.7,32.6,15.6,42.8,29.8
				c10.2,14.2,15.3,30.1,15.3,47.8c0,34.3-11.2,60.5-33.5,78.5c-12.3,10.3-25.1,16.8-38.3,19.5c-13.2,2.7-30.1,4-50.8,4h-76.5
				V1008.4z M672.1,1193.9v100h31c25.3,0,42.8-4.9,52.5-14.8c9.7-9.8,14.5-21.4,14.5-34.8c0-33.7-22-50.5-66-50.5H672.1z"/>
		</g>
		<g>
			<path class="st5" d="M223.7,1341.9l-89.1-201.5l-35,201.5h-52l65.2-333.5h15.9l104.9,234l105.7-234l15.7,0l58.6,333.5h-52
				l-34-201l-90,201H223.7z"/>
			<path class="st5" d="M534.6,1056.4v95.5h15.5c36.3,0,54.5-16.3,54.5-49c0-31-17.5-46.5-52.5-46.5H534.6z M483.6,1008.4h50.5
				c36.7,0,63.3,5.8,80,17.5c25.7,17.3,38.5,42.5,38.5,75.5c0,26-9.3,46.3-28,61c18.3,5.7,32.6,15.6,42.8,29.8
				c10.2,14.2,15.3,30.1,15.3,47.8c0,34.3-11.2,60.5-33.5,78.5c-12.3,10.3-25.1,16.8-38.3,19.5c-13.2,2.7-30.1,4-50.8,4h-76.5
				V1008.4z M534.6,1193.9v100h31c25.3,0,42.8-4.9,52.5-14.8c9.7-9.8,14.5-21.4,14.5-34.8c0-33.7-22-50.5-66-50.5H534.6z"/>
		</g>
	</g>
	<g>
		<g>
			<path class="st5" d="M1359.3,1425.9v48h-133v79.5h129v48h-129v110h133v48h-184v-333.5H1359.3z"/>
			<path class="st5" d="M1476.3,1472.9v106h16c4.3,0,8.7-0.2,13-0.5c4.3-0.3,10.3-1.5,17.8-3.5s14-4.8,19.5-8.3s10.3-8.9,14.5-16.3
				c4.2-7.3,6.3-16,6.3-26c0-34.3-23.2-51.5-69.5-51.5H1476.3z M1425.3,1425.9h59.5c39.3,0,68.7,6.5,88,19.5
				c26.3,17.7,39.5,43.8,39.5,78.5c0,23.7-6.8,43.8-20.3,60.5c-13.5,16.7-31.4,27.5-53.8,32.5l104,142.5h-61.5l-95.5-136.5h-9v136.5
				h-51V1425.9z"/>
		</g>
		<g>
			<polygon class="st5" points="1199.5,1425.9 1199.5,1473.9 1066.5,1473.9 1066.5,1553.4 1195.5,1553.4 1195.5,1601.4 
				1066.5,1601.4 1066.5,1711.4 1199.5,1711.4 1199.5,1759.4 1015.5,1759.4 1015.5,1425.9 			"/>
			<path class="st5" d="M1316.5,1472.9v106h16c4.3,0,8.7-0.2,13-0.5c4.3-0.3,10.3-1.5,17.8-3.5s14-4.8,19.5-8.3s10.3-8.9,14.5-16.3
				c4.2-7.3,6.3-16,6.3-26c0-34.3-23.2-51.5-69.5-51.5H1316.5z M1265.5,1425.9h59.5c39.3,0,68.7,6.5,88,19.5
				c26.3,17.7,39.5,43.8,39.5,78.5c0,23.7-6.8,43.8-20.3,60.5c-13.5,16.7-31.4,27.5-53.8,32.5l104,142.5H1421l-95.5-136.5h-9v136.5
				h-51V1425.9z"/>
		</g>
		<g>
			<polygon class="st5" points="1039.7,1425.9 1039.7,1473.9 906.7,1473.9 906.7,1553.4 1035.7,1553.4 1035.7,1601.4 906.7,1601.4 
				906.7,1711.4 1039.7,1711.4 1039.7,1759.4 855.7,1759.4 855.7,1425.9 			"/>
			<path class="st5" d="M1156.7,1472.9v106h16c4.3,0,8.7-0.2,13-0.5c4.3-0.3,10.3-1.5,17.8-3.5s14-4.8,19.5-8.3s10.3-8.9,14.5-16.3
				c4.2-7.3,6.3-16,6.3-26c0-34.3-23.2-51.5-69.5-51.5H1156.7z M1105.7,1425.9h59.5c39.3,0,68.7,6.5,88,19.5
				c26.3,17.7,39.5,43.8,39.5,78.5c0,23.7-6.8,43.8-20.3,60.5c-13.5,16.7-31.4,27.5-53.8,32.5l104,142.5h-61.5l-95.5-136.5h-9v136.5
				h-51V1425.9z"/>
		</g>
		<g>
			<polygon class="st5" points="879.8,1425.9 879.8,1473.9 746.8,1473.9 746.8,1553.4 875.8,1553.4 875.8,1601.4 746.8,1601.4 
				746.8,1711.4 879.8,1711.4 879.8,1759.4 695.8,1759.4 695.8,1425.9 			"/>
			<path class="st5" d="M996.8,1472.9v106h16c4.3,0,8.7-0.2,13-0.5c4.3-0.3,10.3-1.5,17.8-3.5s14-4.8,19.5-8.3s10.3-8.9,14.5-16.3
				c4.2-7.3,6.3-16,6.3-26c0-34.3-23.2-51.5-69.5-51.5H996.8z M945.8,1425.9h59.5c39.3,0,68.7,6.5,88,19.5
				c26.3,17.7,39.5,43.8,39.5,78.5c0,23.7-6.8,43.8-20.3,60.5c-13.5,16.7-31.4,27.5-53.8,32.5l104,142.5h-61.5l-95.5-136.5h-9v136.5
				h-51V1425.9z"/>
		</g>
		<g>
			<polygon class="st5" points="720,1425.9 720,1473.9 587,1473.9 587,1553.4 716,1553.4 716,1601.4 587,1601.4 587,1711.4 
				720,1711.4 720,1759.4 536,1759.4 536,1425.9 			"/>
			<path class="st5" d="M837,1472.9v106h16c4.3,0,8.7-0.2,13-0.5c4.3-0.3,10.3-1.5,17.8-3.5s14-4.8,19.5-8.3s10.3-8.9,14.5-16.3
				c4.2-7.3,6.3-16,6.3-26c0-34.3-23.2-51.5-69.5-51.5H837z M786,1425.9h59.5c39.3,0,68.7,6.5,88,19.5
				c26.3,17.7,39.5,43.8,39.5,78.5c0,23.7-6.8,43.8-20.3,60.5c-13.5,16.7-31.4,27.5-53.8,32.5l104,142.5h-61.5L846,1622.9h-9v136.5
				h-51V1425.9z"/>
		</g>
		<g>
			<polygon class="st5" points="560.2,1425.9 560.2,1473.9 427.2,1473.9 427.2,1553.4 556.2,1553.4 556.2,1601.4 427.2,1601.4 
				427.2,1711.4 560.2,1711.4 560.2,1759.4 376.2,1759.4 376.2,1425.9 			"/>
			<path class="st5" d="M677.2,1472.9v106h16c4.3,0,8.7-0.2,13-0.5c4.3-0.3,10.3-1.5,17.8-3.5s14-4.8,19.5-8.3s10.3-8.9,14.5-16.3
				c4.2-7.3,6.3-16,6.3-26c0-34.3-23.2-51.5-69.5-51.5H677.2z M626.2,1425.9h59.5c39.3,0,68.7,6.5,88,19.5
				c26.3,17.7,39.5,43.8,39.5,78.5c0,23.7-6.8,43.8-20.3,60.5c-13.5,16.7-31.4,27.5-53.8,32.5l104,142.5h-61.5l-95.5-136.5h-9v136.5
				h-51V1425.9z"/>
		</g>
		<g>
			<polygon class="st5" points="400.3,1425.9 400.3,1473.9 267.3,1473.9 267.3,1553.4 396.3,1553.4 396.3,1601.4 267.3,1601.4 
				267.3,1711.4 400.3,1711.4 400.3,1759.4 216.3,1759.4 216.3,1425.9 			"/>
			<path class="st5" d="M517.3,1472.9v106h16c4.3,0,8.7-0.2,13-0.5c4.3-0.3,10.3-1.5,17.8-3.5s14-4.8,19.5-8.3s10.3-8.9,14.5-16.3
				c4.2-7.3,6.3-16,6.3-26c0-34.3-23.2-51.5-69.5-51.5H517.3z M466.3,1425.9h59.5c39.3,0,68.7,6.5,88,19.5
				c26.3,17.7,39.5,43.8,39.5,78.5c0,23.7-6.8,43.8-20.3,60.5c-13.5,16.7-31.4,27.5-53.8,32.5l104,142.5h-61.5l-95.5-136.5h-9v136.5
				h-51V1425.9z"/>
		</g>
		<g>
			<path class="st5" d="M240.5,1425.9v48h-133v79.5h129v48h-129v110h133v48h-184v-333.5H240.5z"/>
			<path class="st5" d="M357.5,1472.9v106h16c4.3,0,8.7-0.2,13-0.5c4.3-0.3,10.3-1.5,17.8-3.5s14-4.8,19.5-8.3s10.3-8.9,14.5-16.3
				c4.2-7.3,6.3-16,6.3-26c0-34.3-23.2-51.5-69.5-51.5H357.5z M306.5,1425.9H366c39.3,0,68.7,6.5,88,19.5
				c26.3,17.7,39.5,43.8,39.5,78.5c0,23.7-6.8,43.8-20.3,60.5c-13.5,16.7-31.4,27.5-53.8,32.5l104,142.5H462l-95.5-136.5h-9v136.5
				h-51V1425.9z"/>
		</g>
	</g>
	<g>
		<g>
			<path class="st5" d="M1200.4,2177l-88.8-201.5l-35,201.5h-52l65.3-333.4l15.5-0.1l105.3,234l105.7-233.9l15.7,0.1l58.6,333.3h-52
				l-34-201l-89.5,201H1200.4z"/>
			<path class="st5" d="M1644.6,1843.5v48h-133v79.5h129v48h-129v110h133v48h-184v-333.5H1644.6z"/>
		</g>
		<g>
			<polygon class="st5" points="1060.9,2177 972.1,1975.5 937.1,2177 885.1,2177 950.4,1843.7 965.8,1843.6 1071.1,2077.5 
				1176.8,1843.6 1192.5,1843.7 1251.1,2177 1199.1,2177 1165.1,1976 1075.5,2177 			"/>
			<polygon class="st5" points="1505.1,1843.5 1505.1,1891.5 1372.1,1891.5 1372.1,1971 1501.1,1971 1501.1,2019 1372.1,2019 
				1372.1,2129 1505.1,2129 1505.1,2177 1321.1,2177 1321.1,1843.5 			"/>
		</g>
		<g>
			<polygon class="st5" points="921.4,2177 832.6,1975.5 797.6,2177 745.6,2177 810.8,1843.8 826.3,1843.7 931.6,2077.5 
				1037.3,1843.6 1053.1,1843.6 1111.6,2177 1059.6,2177 1025.6,1976 936,2177 			"/>
			<polygon class="st5" points="1365.6,1843.5 1365.6,1891.5 1232.6,1891.5 1232.6,1971 1361.6,1971 1361.6,2019 1232.6,2019 
				1232.6,2129 1365.6,2129 1365.6,2177 1181.6,2177 1181.6,1843.5 			"/>
		</g>
		<g>
			<polygon class="st5" points="781.9,2177 693.2,1975.5 658.2,2177 606.2,2177 671.3,1843.8 686.9,1843.8 792.2,2077.5 
				897.9,1843.5 913.6,1843.6 972.2,2177 920.2,2177 886.2,1976 796.5,2177 			"/>
			<polygon class="st5" points="1226.2,1843.5 1226.2,1891.5 1093.2,1891.5 1093.2,1971 1222.2,1971 1222.2,2019 1093.2,2019 
				1093.2,2129 1226.2,2129 1226.2,2177 1042.2,2177 1042.2,1843.5 			"/>
		</g>
		<g>
			<polygon class="st5" points="642.4,2177 553.7,1975.5 518.7,2177 466.7,2177 531.8,1843.9 547.4,1843.8 652.7,2077.5 
				758.4,1843.5 774.1,1843.6 832.7,2177 780.7,2177 746.7,1976 657,2177 			"/>
			<polygon class="st5" points="1086.7,1843.5 1086.7,1891.5 953.7,1891.5 953.7,1971 1082.7,1971 1082.7,2019 953.7,2019 
				953.7,2129 1086.7,2129 1086.7,2177 902.7,2177 902.7,1843.5 			"/>
		</g>
		<g>
			<polygon class="st5" points="502.9,2177 414.2,1975.5 379.2,2177 327.2,2177 392.2,1844 407.9,1843.9 513.2,2077.5 618.9,1843.5 
				634.6,1843.6 693.2,2177 641.2,2177 607.2,1976 517.5,2177 			"/>
			<polygon class="st5" points="947.2,1843.5 947.2,1891.5 814.2,1891.5 814.2,1971 943.2,1971 943.2,2019 814.2,2019 814.2,2129 
				947.2,2129 947.2,2177 763.2,2177 763.2,1843.5 			"/>
		</g>
		<g>
			<polygon class="st5" points="363.4,2177 274.7,1975.5 239.7,2177 187.7,2177 252.7,1844 268.4,1844 373.7,2077.5 479.4,1843.5 
				495.1,1843.5 553.7,2177 501.7,2177 467.7,1976 377.9,2177 			"/>
			<polygon class="st5" points="807.7,1843.5 807.7,1891.5 674.7,1891.5 674.7,1971 803.7,1971 803.7,2019 674.7,2019 674.7,2129 
				807.7,2129 807.7,2177 623.7,2177 623.7,1843.5 			"/>
		</g>
		<g>
			<path class="st5" d="M223.9,2177l-88.6-201.5l-35,201.5h-52l64.9-332.9h15.7l105.4,233.4l105.7-234l15.7,0l58.6,333.5h-52
				l-34-201l-89.8,201L223.9,2177z"/>
			<path class="st5" d="M668.3,1843.5v48h-133v79.5h129v48h-129v110h133v48h-184v-333.5H668.3z"/>
		</g>
	</g>
</g>
<g id="Layer_7">
</g>
<g id="Layer_3">
	<g>
		<path d="M56.5,173.2H116c39.3,0,68.7,6.5,88,19.5c26.3,17.7,39.5,43.8,39.5,78.5c0,23.7-6.8,43.8-20.3,60.5
			c-13.5,16.7-31.4,27.5-53.8,32.5l104,142.5H212l-95.5-136.5h-9v136.5h-51V173.2z M107.5,220.2v106h16c4.3,0,8.7-0.2,13-0.5
			c4.3-0.3,10.3-1.5,17.8-3.5s14-4.8,19.5-8.3s10.3-8.9,14.5-16.3c4.2-7.3,6.3-16,6.3-26c0-34.3-23.2-51.5-69.5-51.5H107.5z"/>
		<path d="M507.5,173.2v48h-133v79.5h129v48h-129v110h133v48h-184V173.2H507.5z"/>
	</g>
	<g>
		<path d="M241.3,1427v48h-133v79.5h129v48h-129v110h133v48h-184V1427H241.3z"/>
		<path d="M307.3,1427h59.5c39.3,0,68.7,6.5,88,19.5c26.3,17.7,39.5,43.8,39.5,78.5c0,23.7-6.8,43.8-20.3,60.5
			c-13.5,16.7-31.4,27.5-53.8,32.5l104,142.5h-61.5L367.3,1624h-9v136.5h-51V1427z M358.3,1474v106h16c4.3,0,8.7-0.2,13-0.5
			c4.3-0.3,10.3-1.5,17.8-3.5s14-4.8,19.5-8.3s10.3-8.9,14.5-16.3c4.2-7.3,6.3-16,6.3-26c0-34.3-23.2-51.5-69.5-51.5H358.3z"/>
	</g>
</g>
<g id="Layer_8">
	<polyline points="340,590.8 355.7,590.8 414.3,924.3 362.3,924.3 328.3,723.3 238.4,924.3 223.9,924.3 135.3,722.8 100.3,924.3 
		48.3,924.3 113.1,591.4 128.9,591.4 234.3,824.8 	"/>
	<polyline points="340,1007.6 355.7,1007.6 414.3,1341.1 362.3,1341.1 328.3,1140.1 238.4,1341.1 223.9,1341.1 135.3,1139.6 
		100.3,1341.1 48.3,1341.1 113.1,1008.2 128.9,1008.2 234.3,1241.6 	"/>
	<polyline points="341,1845.6 356.7,1845.6 415.3,2179.1 363.3,2179.1 329.3,1978.1 239.4,2179.1 224.9,2179.1 136.3,1977.6 
		101.3,2179.1 49.3,2179.1 114.2,1846.2 129.9,1846.2 235.3,2079.6 	"/>
	<g>
		<path d="M669.9,1844.1v48h-133v79.5h129v48h-129v110h133v48h-184v-333.5H669.9z"/>
	</g>
	<g>
		<path d="M668.3,590.8v48h-133v79.5h129v48h-129v110h133v48h-184V590.8H668.3z"/>
	</g>
	<g>
		<path d="M483.6,1010.3h50.5c36.7,0,63.3,5.8,80,17.5c25.7,17.3,38.5,42.5,38.5,75.5c0,26-9.3,46.3-28,61
			c18.3,5.7,32.6,15.6,42.8,29.8c10.2,14.2,15.3,30.1,15.3,47.8c0,34.3-11.2,60.5-33.5,78.5c-12.3,10.3-25.1,16.8-38.3,19.5
			c-13.2,2.7-30.1,4-50.8,4h-76.5V1010.3z M534.6,1058.3v95.5h15.5c36.3,0,54.5-16.3,54.5-49c0-31-17.5-46.5-52.5-46.5H534.6z
			 M534.6,1195.8v100h31c25.3,0,42.8-4.9,52.5-14.8c9.7-9.8,14.5-21.4,14.5-34.8c0-33.7-22-50.5-66-50.5H534.6z"/>
	</g>
</g>
<g id="Layer_6">
</g>
<g id="Layer_4">
</g>
<g id="Layer_5">
</g>
</svg>
